solid Odroid-Carputer3
facet normal -1.0 0.0 0.0
  outer loop
    vertex 59.67089402634703 123.23415591181795 -29.975529491682753
    vertex 59.67089402634703 18.381078023143825 -36.72552949168275
    vertex 59.67089402634703 18.381078023143825 -29.975529491682753
  endloop
endfacet
facet normal -1.0 0.0 0.0
  outer loop
    vertex 59.67089402634703 18.381078023143825 -36.72552949168275
    vertex 59.67089402634703 123.23415591181795 -29.975529491682753
    vertex 59.67089402634703 123.23415591181795 -36.72552949168275
  endloop
endfacet
facet normal 3.894502367626388e-17 -1.40981603147511e-17 -1.0
  outer loop
    vertex 59.67089402634703 123.23415591181795 -36.72552949168275
    vertex 78.67089402634703 77.74303055024416 -36.725529491682714
    vertex 59.67089402634703 18.381078023143825 -36.72552949168275
  endloop
endfacet
facet normal 3.894502367626388e-17 -1.40981603147511e-17 -1.0
  outer loop
    vertex 78.67089402634703 77.74303055024416 -36.725529491682714
    vertex 59.67089402634703 123.23415591181795 -36.72552949168275
    vertex 94.88989402634702 123.23415591181795 -36.72552949168275
  endloop
endfacet
facet normal 3.894502367626388e-17 -1.40981603147511e-17 -1.0
  outer loop
    vertex 78.67089402634703 77.74303055024416 -36.725529491682714
    vertex 94.88989402634702 123.23415591181795 -36.72552949168275
    vertex 88.75626502941147 102.13209416743206 -36.72552949168274
  endloop
endfacet
facet normal 3.894502367626388e-17 -1.40981603147511e-17 -1.0
  outer loop
    vertex 78.67089402634703 77.74303055024416 -36.725529491682714
    vertex 88.75626502941147 102.13209416743206 -36.72552949168274
    vertex 88.53989402634704 100.48859323103105 -36.72552949168274
  endloop
endfacet
facet normal 3.894502367626388e-17 -1.40981603147511e-17 -1.0
  outer loop
    vertex 88.75626502941147 102.13209416743206 -36.72552949168274
    vertex 94.88989402634702 123.23415591181795 -36.72552949168275
    vertex 89.39063271231585 103.66359323103106 -36.72552949168274
  endloop
endfacet
facet normal 3.894502367626388e-17 -1.40981603147511e-17 -1.0
  outer loop
    vertex 89.39063271231585 103.66359323103106 -36.72552949168274
    vertex 94.88989402634702 123.23415591181795 -36.72552949168275
    vertex 90.39976596581246 104.97872129156563 -36.72552949168274
  endloop
endfacet
facet normal 3.894502367626388e-17 -1.40981603147511e-17 -1.0
  outer loop
    vertex 90.39976596581246 104.97872129156563 -36.72552949168274
    vertex 94.88989402634702 123.23415591181795 -36.72552949168275
    vertex 91.71489402634704 105.98785454506223 -36.72552949168274
  endloop
endfacet
facet normal 3.894502367626388e-17 -1.40981603147511e-17 -1.0
  outer loop
    vertex 91.71489402634704 105.98785454506223 -36.72552949168274
    vertex 94.88989402634702 123.23415591181795 -36.72552949168275
    vertex 93.24639308994604 106.62222222796663 -36.72552949168274
  endloop
endfacet
facet normal 3.894502367626388e-17 -1.40981603147511e-17 -1.0
  outer loop
    vertex 93.24639308994604 106.62222222796663 -36.72552949168274
    vertex 94.88989402634702 123.23415591181795 -36.72552949168275
    vertex 94.88989402634704 106.83859323103107 -36.725529491682735
  endloop
endfacet
facet normal 3.894502367626388e-17 -1.40981603147511e-17 -1.0
  outer loop
    vertex 78.67089402634703 77.74303055024416 -36.725529491682714
    vertex 88.75626502941147 98.84509229463004 -36.72552949168274
    vertex 94.88989402634704 77.74303055024416 -36.725529491682714
  endloop
endfacet
facet normal 3.894502367626388e-17 -1.40981603147511e-17 -1.0
  outer loop
    vertex 88.75626502941147 98.84509229463004 -36.72552949168274
    vertex 78.67089402634703 77.74303055024416 -36.725529491682714
    vertex 88.53989402634704 100.48859323103105 -36.72552949168274
  endloop
endfacet
facet normal 3.894502367626388e-17 -1.40981603147511e-17 -1.0
  outer loop
    vertex 94.88989402634704 77.74303055024416 -36.725529491682714
    vertex 88.75626502941147 98.84509229463004 -36.72552949168274
    vertex 89.39063271231585 97.31359323103104 -36.72552949168274
  endloop
endfacet
facet normal 3.894502367626388e-17 -1.40981603147511e-17 -1.0
  outer loop
    vertex 94.88989402634704 77.74303055024416 -36.725529491682714
    vertex 89.39063271231585 97.31359323103104 -36.72552949168274
    vertex 90.39976596581246 95.99846517049647 -36.72552949168274
  endloop
endfacet
facet normal 3.894502367626388e-17 -1.40981603147511e-17 -1.0
  outer loop
    vertex 94.88989402634704 77.74303055024416 -36.725529491682714
    vertex 90.39976596581246 95.99846517049647 -36.72552949168274
    vertex 91.71489402634704 94.98933191699986 -36.72552949168274
  endloop
endfacet
facet normal 3.894502367626388e-17 -1.40981603147511e-17 -1.0
  outer loop
    vertex 94.88989402634704 77.74303055024416 -36.725529491682714
    vertex 91.71489402634704 94.98933191699986 -36.72552949168274
    vertex 93.24639308994603 94.35496423409548 -36.725529491682735
  endloop
endfacet
facet normal 3.894502367626388e-17 -1.40981603147511e-17 -1.0
  outer loop
    vertex 94.88989402634704 77.74303055024416 -36.725529491682714
    vertex 93.24639308994603 94.35496423409548 -36.725529491682735
    vertex 94.88989402634704 94.13859323103104 -36.725529491682735
  endloop
endfacet
facet normal 3.894502367626388e-17 -1.40981603147511e-17 -1.0
  outer loop
    vertex 130.10889402634703 123.23415591181795 -36.72552949168275
    vertex 94.88989402634704 106.83859323103107 -36.725529491682735
    vertex 94.88989402634702 123.23415591181795 -36.72552949168275
  endloop
endfacet
facet normal 3.894502367626388e-17 -1.40981603147511e-17 -1.0
  outer loop
    vertex 94.88989402634704 106.83859323103107 -36.725529491682735
    vertex 130.10889402634703 123.23415591181795 -36.72552949168275
    vertex 96.53339496274805 106.62222222796663 -36.725529491682735
  endloop
endfacet
facet normal 3.894502367626388e-17 -1.40981603147511e-17 -1.0
  outer loop
    vertex 96.53339496274805 106.62222222796663 -36.725529491682735
    vertex 130.10889402634703 123.23415591181795 -36.72552949168275
    vertex 98.06489402634703 105.98785454506223 -36.72552949168273
  endloop
endfacet
facet normal 3.894502367626388e-17 -1.40981603147511e-17 -1.0
  outer loop
    vertex 98.06489402634703 105.98785454506223 -36.72552949168273
    vertex 130.10889402634703 123.23415591181795 -36.72552949168275
    vertex 99.38002208688162 104.97872129156563 -36.72552949168273
  endloop
endfacet
facet normal 3.894502367626388e-17 -1.40981603147511e-17 -1.0
  outer loop
    vertex 99.38002208688162 104.97872129156563 -36.72552949168273
    vertex 130.10889402634703 123.23415591181795 -36.72552949168275
    vertex 100.38915534037822 103.66359323103104 -36.72552949168273
  endloop
endfacet
facet normal 3.894502367626388e-17 -1.40981603147511e-17 -1.0
  outer loop
    vertex 100.38915534037822 103.66359323103104 -36.72552949168273
    vertex 130.10889402634703 123.23415591181795 -36.72552949168275
    vertex 101.02352302328262 102.13209416743206 -36.72552949168273
  endloop
endfacet
facet normal 3.894502367626388e-17 -1.40981603147511e-17 -1.0
  outer loop
    vertex 101.02352302328262 102.13209416743206 -36.72552949168273
    vertex 130.10889402634703 123.23415591181795 -36.72552949168275
    vertex 101.23989402634705 100.48859323103105 -36.72552949168273
  endloop
endfacet
facet normal 3.894502367626388e-17 -1.40981603147511e-17 -1.0
  outer loop
    vertex 101.23989402634705 100.48859323103105 -36.72552949168273
    vertex 130.10889402634703 123.23415591181795 -36.72552949168275
    vertex 111.10889402634704 77.74303055024416 -36.725529491682714
  endloop
endfacet
facet normal 3.894502367626388e-17 -1.40981603147511e-17 -1.0
  outer loop
    vertex 111.10889402634704 77.74303055024416 -36.725529491682714
    vertex 130.10889402634703 123.23415591181795 -36.72552949168275
    vertex 111.10889402634704 21.826148023143823 -36.725529491682714
  endloop
endfacet
facet normal 3.894502367626388e-17 -1.40981603147511e-17 -1.0
  outer loop
    vertex 59.67089402634703 18.381078023143825 -36.72552949168275
    vertex 54.67089402634703 0.38107802314382555 -36.72552949168275
    vertex 54.67089402634703 18.381078023143825 -36.72552949168275
  endloop
endfacet
facet normal 3.894502367626388e-17 -1.40981603147511e-17 -1.0
  outer loop
    vertex 54.67089402634703 0.38107802314382555 -36.72552949168275
    vertex 59.67089402634703 18.381078023143825 -36.72552949168275
    vertex 135.10889402634703 0.38107802314382555 -36.72552949168275
  endloop
endfacet
facet normal 3.894502367626388e-17 -1.40981603147511e-17 -1.0
  outer loop
    vertex 135.10889402634703 0.38107802314382555 -36.72552949168275
    vertex 59.67089402634703 18.381078023143825 -36.72552949168275
    vertex 78.67089402634703 21.826148023143823 -36.725529491682714
  endloop
endfacet
facet normal 3.894502367626388e-17 -1.40981603147511e-17 -1.0
  outer loop
    vertex 78.67089402634703 21.826148023143823 -36.725529491682714
    vertex 59.67089402634703 18.381078023143825 -36.72552949168275
    vertex 78.67089402634703 77.74303055024416 -36.725529491682714
  endloop
endfacet
facet normal 3.894502367626388e-17 -1.40981603147511e-17 -1.0
  outer loop
    vertex 135.10889402634703 0.38107802314382555 -36.72552949168275
    vertex 78.67089402634703 21.826148023143823 -36.725529491682714
    vertex 111.10889402634704 21.826148023143823 -36.725529491682714
  endloop
endfacet
facet normal 3.894502367626388e-17 -1.40981603147511e-17 -1.0
  outer loop
    vertex 135.10889402634703 0.38107802314382555 -36.72552949168275
    vertex 111.10889402634704 21.826148023143823 -36.725529491682714
    vertex 130.10889402634703 18.381078023143825 -36.72552949168275
  endloop
endfacet
facet normal 3.894502367626388e-17 -1.40981603147511e-17 -1.0
  outer loop
    vertex 130.10889402634703 18.381078023143825 -36.72552949168275
    vertex 111.10889402634704 21.826148023143823 -36.725529491682714
    vertex 130.10889402634703 123.23415591181795 -36.72552949168275
  endloop
endfacet
facet normal 3.894502367626388e-17 -1.40981603147511e-17 -1.0
  outer loop
    vertex 135.10889402634703 0.38107802314382555 -36.72552949168275
    vertex 130.10889402634703 18.381078023143825 -36.72552949168275
    vertex 135.10889402634703 18.381078023143825 -36.72552949168275
  endloop
endfacet
facet normal 3.894502367626388e-17 -1.40981603147511e-17 -1.0
  outer loop
    vertex 96.53339496274803 94.35496423409548 -36.72552949168273
    vertex 94.88989402634704 77.74303055024416 -36.725529491682714
    vertex 94.88989402634704 94.13859323103104 -36.725529491682735
  endloop
endfacet
facet normal 3.894502367626388e-17 -1.40981603147511e-17 -1.0
  outer loop
    vertex 94.88989402634704 77.74303055024416 -36.725529491682714
    vertex 96.53339496274803 94.35496423409548 -36.72552949168273
    vertex 111.10889402634704 77.74303055024416 -36.725529491682714
  endloop
endfacet
facet normal 3.894502367626388e-17 -1.40981603147511e-17 -1.0
  outer loop
    vertex 111.10889402634704 77.74303055024416 -36.725529491682714
    vertex 96.53339496274803 94.35496423409548 -36.72552949168273
    vertex 98.06489402634703 94.98933191699986 -36.72552949168273
  endloop
endfacet
facet normal 3.894502367626388e-17 -1.40981603147511e-17 -1.0
  outer loop
    vertex 111.10889402634704 77.74303055024416 -36.725529491682714
    vertex 98.06489402634703 94.98933191699986 -36.72552949168273
    vertex 99.38002208688162 95.99846517049647 -36.72552949168273
  endloop
endfacet
facet normal 3.894502367626388e-17 -1.40981603147511e-17 -1.0
  outer loop
    vertex 111.10889402634704 77.74303055024416 -36.725529491682714
    vertex 99.38002208688162 95.99846517049647 -36.72552949168273
    vertex 100.38915534037822 97.31359323103104 -36.72552949168273
  endloop
endfacet
facet normal 3.894502367626388e-17 -1.40981603147511e-17 -1.0
  outer loop
    vertex 111.10889402634704 77.74303055024416 -36.725529491682714
    vertex 100.38915534037822 97.31359323103104 -36.72552949168273
    vertex 101.02352302328262 98.84509229463004 -36.72552949168273
  endloop
endfacet
facet normal 3.894502367626388e-17 -1.40981603147511e-17 -1.0
  outer loop
    vertex 111.10889402634704 77.74303055024416 -36.725529491682714
    vertex 101.02352302328262 98.84509229463004 -36.72552949168273
    vertex 101.23989402634705 100.48859323103105 -36.72552949168273
  endloop
endfacet
facet normal 1.0 0.0 0.0
  outer loop
    vertex 130.10889402634703 123.23415591181795 -36.72552949168275
    vertex 130.10889402634703 18.381078023143825 -29.975529491682753
    vertex 130.10889402634703 18.381078023143825 -36.72552949168275
  endloop
endfacet
facet normal 1.0 0.0 0.0
  outer loop
    vertex 130.10889402634703 18.381078023143825 -29.975529491682753
    vertex 130.10889402634703 123.23415591181795 -36.72552949168275
    vertex 130.10889402634703 123.23415591181795 -29.975529491682753
  endloop
endfacet
facet normal 0.0 0.0 1.0
  outer loop
    vertex 125.10889402634703 0.38107802314382555 -29.975529491682753
    vertex 130.10889402634703 18.381078023143825 -29.975529491682753
    vertex 125.10889402634703 123.23415591181795 -29.975529491682753
  endloop
endfacet
facet normal 0.0 0.0 1.0
  outer loop
    vertex 130.10889402634703 18.381078023143825 -29.975529491682753
    vertex 125.10889402634703 0.38107802314382555 -29.975529491682753
    vertex 135.10889402634703 0.38107802314382555 -29.975529491682753
  endloop
endfacet
facet normal 0.0 0.0 1.0
  outer loop
    vertex 130.10889402634703 18.381078023143825 -29.975529491682753
    vertex 135.10889402634703 0.38107802314382555 -29.975529491682753
    vertex 135.10889402634703 18.381078023143825 -29.975529491682753
  endloop
endfacet
facet normal 0.0 0.0 1.0
  outer loop
    vertex 130.10889402634703 123.23415591181795 -29.975529491682753
    vertex 125.10889402634703 123.23415591181795 -29.975529491682753
    vertex 130.10889402634703 18.381078023143825 -29.975529491682753
  endloop
endfacet
facet normal 0.0 0.0 1.0
  outer loop
    vertex 64.67089402634703 0.38107802314382555 -29.975529491682753
    vertex 54.67089402634703 18.381078023143825 -29.975529491682753
    vertex 54.67089402634703 0.38107802314382555 -29.975529491682753
  endloop
endfacet
facet normal 0.0 0.0 1.0
  outer loop
    vertex 54.67089402634703 18.381078023143825 -29.975529491682753
    vertex 64.67089402634703 0.38107802314382555 -29.975529491682753
    vertex 59.67089402634703 18.381078023143825 -29.975529491682753
  endloop
endfacet
facet normal 0.0 0.0 1.0
  outer loop
    vertex 59.67089402634703 18.381078023143825 -29.975529491682753
    vertex 64.67089402634703 0.38107802314382555 -29.975529491682753
    vertex 59.67089402634703 123.23415591181795 -29.975529491682753
  endloop
endfacet
facet normal 0.0 0.0 1.0
  outer loop
    vertex 59.67089402634703 123.23415591181795 -29.975529491682753
    vertex 64.67089402634703 0.38107802314382555 -29.975529491682753
    vertex 64.67089402634703 123.23415591181795 -29.975529491682753
  endloop
endfacet
facet normal 0.0 1.0 -2.0888640611465911e-16
  outer loop
    vertex 130.10889402634703 18.381078023143825 -29.975529491682753
    vertex 135.10889402634703 18.381078023143825 -36.72552949168275
    vertex 130.10889402634703 18.381078023143825 -36.72552949168275
  endloop
endfacet
facet normal 0.0 1.0 -2.0888640611465911e-16
  outer loop
    vertex 135.10889402634703 18.381078023143825 -36.72552949168275
    vertex 130.10889402634703 18.381078023143825 -29.975529491682753
    vertex 135.10889402634703 18.381078023143825 -29.975529491682753
  endloop
endfacet
facet normal 1.0 0.0 0.0
  outer loop
    vertex 135.10889402634703 18.381078023143825 -36.72552949168275
    vertex 135.10889402634703 0.38107802314382555 -29.975529491682753
    vertex 135.10889402634703 0.38107802314382555 -36.72552949168275
  endloop
endfacet
facet normal 1.0 0.0 0.0
  outer loop
    vertex 135.10889402634703 0.38107802314382555 -29.975529491682753
    vertex 135.10889402634703 18.381078023143825 -36.72552949168275
    vertex 135.10889402634703 18.381078023143825 -29.975529491682753
  endloop
endfacet
facet normal -1.0 0.0 0.0
  outer loop
    vertex 54.67089402634703 18.381078023143825 -29.975529491682753
    vertex 54.67089402634703 0.38107802314382555 -36.72552949168275
    vertex 54.67089402634703 0.38107802314382555 -29.975529491682753
  endloop
endfacet
facet normal -1.0 0.0 0.0
  outer loop
    vertex 54.67089402634703 0.38107802314382555 -36.72552949168275
    vertex 54.67089402634703 18.381078023143825 -29.975529491682753
    vertex 54.67089402634703 18.381078023143825 -36.72552949168275
  endloop
endfacet
facet normal 0.0 1.0 4.1777281222931823e-16
  outer loop
    vertex 54.67089402634703 18.381078023143825 -29.975529491682753
    vertex 59.67089402634703 18.381078023143825 -36.72552949168275
    vertex 54.67089402634703 18.381078023143825 -36.72552949168275
  endloop
endfacet
facet normal 0.0 1.0 4.1777281222931823e-16
  outer loop
    vertex 59.67089402634703 18.381078023143825 -36.72552949168275
    vertex 54.67089402634703 18.381078023143825 -29.975529491682753
    vertex 59.67089402634703 18.381078023143825 -29.975529491682753
  endloop
endfacet
facet normal 0.9999999992374391 6.875006712183585e-06 3.8442894269819555e-05
  outer loop
    vertex 78.67089402634703 77.74303055024416 -29.975529491682753
    vertex 78.67050966140926 77.74255507722759 -19.977109402386823
    vertex 78.67089402634703 21.826148023143823 -19.975529491682746
  endloop
endfacet
facet normal 0.0 -1.0 0.0
  outer loop
    vertex 111.10889402634704 77.74303055024416 -29.975529491682753
    vertex 94.88989402634704 77.74303055024416 -36.725529491682714
    vertex 111.10889402634704 77.74303055024416 -36.725529491682714
  endloop
endfacet
facet normal 0.0 -1.0 0.0
  outer loop
    vertex 111.10889402634704 77.74303055024416 -29.975529491682753
    vertex 78.67089402634703 77.74303055024416 -36.725529491682714
    vertex 94.88989402634704 77.74303055024416 -36.725529491682714
  endloop
endfacet
facet normal 0.0 -1.0 0.0
  outer loop
    vertex 78.67089402634703 77.74303055024416 -29.975529491682753
    vertex 78.67089402634703 77.74303055024416 -36.725529491682714
    vertex 111.10889402634704 77.74303055024416 -29.975529491682753
  endloop
endfacet
facet normal 8.184098733764142e-05 -1.9443804344718482e-05 0.9999999964619957
  outer loop
    vertex 111.10889402634704 21.826148023143823 -19.975529491682746
    vertex 111.10850966140929 123.23368043880136 -19.97336840238683
    vertex 111.10850966140926 77.74255507722759 -19.977109402386823
  endloop
endfacet
facet normal 8.184098733764142e-05 -1.9443804344718482e-05 0.9999999964619957
  outer loop
    vertex 111.10850966140929 123.23368043880136 -19.97336840238683
    vertex 111.10889402634704 21.826148023143823 -19.975529491682746
    vertex 125.10889402634703 123.23415591181795 -19.975529491682753
  endloop
endfacet
facet normal -6.8069900095201865e-06 2.0524258499720424e-06 0.9999999999747262
  outer loop
    vertex 78.67089402634703 0.38107802314382555 -19.975529491682753
    vertex 78.67050966140926 77.74255507722759 -19.977109402386823
    vertex 64.67089402634703 123.23415591181795 -19.975529491682753
  endloop
endfacet
facet normal -6.8069900095201865e-06 2.0524258499720424e-06 0.9999999999747262
  outer loop
    vertex 78.67050966140926 77.74255507722759 -19.977109402386823
    vertex 78.67089402634703 0.38107802314382555 -19.975529491682753
    vertex 78.67089402634703 21.826148023143823 -19.975529491682746
  endloop
endfacet
facet normal -6.8069900095201865e-06 2.0524258499720424e-06 0.9999999999747262
  outer loop
    vertex 78.67089402634703 21.826148023143823 -19.975529491682746
    vertex 78.67089402634703 0.38107802314382555 -19.975529491682753
    vertex 111.10889402634706 0.38107802314382555 -19.975529491682753
  endloop
endfacet
facet normal -6.8069900095201865e-06 2.0524258499720424e-06 0.9999999999747262
  outer loop
    vertex 78.67089402634703 21.826148023143823 -19.975529491682746
    vertex 111.10889402634706 0.38107802314382555 -19.975529491682753
    vertex 111.10889402634704 21.826148023143823 -19.975529491682746
  endloop
endfacet
facet normal -6.8069900095201865e-06 2.0524258499720424e-06 0.9999999999747262
  outer loop
    vertex 111.10889402634704 21.826148023143823 -19.975529491682746
    vertex 111.10889402634706 0.38107802314382555 -19.975529491682753
    vertex 125.10889402634703 123.23415591181795 -19.975529491682753
  endloop
endfacet
facet normal 0.00011285386221969805 0.0 0.999999993632003
  outer loop
    vertex 78.67050966140926 123.23368043880136 -19.977109402386823
    vertex 64.67089402634703 123.23415591181795 -19.975529491682753
    vertex 78.67050966140926 77.74255507722759 -19.977109402386823
  endloop
endfacet
facet normal 1.0 -0.0 -0.0
  outer loop
    vertex 78.67089402634703 77.74303055024416 -29.975529491682753
    vertex 78.67089402634703 21.826148023143823 -19.975529491682746
    vertex 78.67089402634703 21.826148023143823 -29.975529491682753
  endloop
endfacet
facet normal -0.0 -0.0 1.0
  outer loop
    vertex 125.10889402634703 123.23415591181795 -19.975529491682753
    vertex 111.10889402634706 0.38107802314382555 -19.975529491682753
    vertex 125.10889402634703 0.38107802314382555 -19.975529491682753
  endloop
endfacet
facet normal 0.0 -1.0 0.0
  outer loop
    vertex 125.10889402634703 0.38107802314382555 -19.975529491682753
    vertex 64.67089402634703 0.38107802314382555 -29.975529491682753
    vertex 125.10889402634703 0.38107802314382555 -29.975529491682753
  endloop
endfacet
facet normal 0.0 -1.0 0.0
  outer loop
    vertex 64.67089402634703 0.38107802314382555 -29.975529491682753
    vertex 125.10889402634703 0.38107802314382555 -19.975529491682753
    vertex 64.67089402634703 0.38107802314382555 -19.975529491682753
  endloop
endfacet
facet normal 0.0 -1.0 0.0
  outer loop
    vertex 64.67089402634703 0.38107802314382555 -19.975529491682753
    vertex 125.10889402634703 0.38107802314382555 -19.975529491682753
    vertex 111.10889402634706 0.38107802314382555 -19.975529491682753
  endloop
endfacet
facet normal 0.0 -1.0 0.0
  outer loop
    vertex 64.67089402634703 0.38107802314382555 -19.975529491682753
    vertex 111.10889402634706 0.38107802314382555 -19.975529491682753
    vertex 78.67089402634703 0.38107802314382555 -19.975529491682753
  endloop
endfacet
facet normal 0.0 -1.0 0.0
  outer loop
    vertex 135.10889402634703 0.38107802314382555 -29.975529491682753
    vertex 54.67089402634703 0.38107802314382555 -36.72552949168275
    vertex 135.10889402634703 0.38107802314382555 -36.72552949168275
  endloop
endfacet
facet normal 0.0 -1.0 0.0
  outer loop
    vertex 54.67089402634703 0.38107802314382555 -36.72552949168275
    vertex 135.10889402634703 0.38107802314382555 -29.975529491682753
    vertex 54.67089402634703 0.38107802314382555 -29.975529491682753
  endloop
endfacet
facet normal 0.0 -1.0 0.0
  outer loop
    vertex 54.67089402634703 0.38107802314382555 -29.975529491682753
    vertex 135.10889402634703 0.38107802314382555 -29.975529491682753
    vertex 125.10889402634703 0.38107802314382555 -29.975529491682753
  endloop
endfacet
facet normal 0.0 -1.0 0.0
  outer loop
    vertex 54.67089402634703 0.38107802314382555 -29.975529491682753
    vertex 125.10889402634703 0.38107802314382555 -29.975529491682753
    vertex 64.67089402634703 0.38107802314382555 -29.975529491682753
  endloop
endfacet
facet normal 0.0 1.0 0.0
  outer loop
    vertex 59.67089402634703 123.23415591181795 -29.975529491682753
    vertex 130.10889402634703 123.23415591181795 -36.72552949168275
    vertex 94.88989402634702 123.23415591181795 -36.72552949168275
  endloop
endfacet
facet normal 0.0 1.0 0.0
  outer loop
    vertex 59.67089402634703 123.23415591181795 -29.975529491682753
    vertex 130.10889402634703 123.23415591181795 -29.975529491682753
    vertex 130.10889402634703 123.23415591181795 -36.72552949168275
  endloop
endfacet
facet normal 0.0 1.0 0.0
  outer loop
    vertex 130.10889402634703 123.23415591181795 -29.975529491682753
    vertex 59.67089402634703 123.23415591181795 -29.975529491682753
    vertex 64.67089402634703 123.23415591181795 -29.975529491682753
  endloop
endfacet
facet normal 0.0 1.0 0.0
  outer loop
    vertex 130.10889402634703 123.23415591181795 -29.975529491682753
    vertex 64.67089402634703 123.23415591181795 -29.975529491682753
    vertex 125.10889402634703 123.23415591181795 -29.975529491682753
  endloop
endfacet
facet normal 0.0 1.0 0.0
  outer loop
    vertex 64.67089402634703 123.23415591181795 -19.975529491682753
    vertex 125.10889402634703 123.23415591181795 -29.975529491682753
    vertex 64.67089402634703 123.23415591181795 -29.975529491682753
  endloop
endfacet
facet normal 3.3986471064071095e-05 0.9999999783263529 0.00020540743381703295
  outer loop
    vertex 64.67089402634703 123.23415591181795 -19.975529491682753
    vertex 78.67050966140926 123.23368043880136 -19.977109402386823
    vertex 125.10889402634703 123.23415591181795 -29.975529491682753
  endloop
endfacet
facet normal -8.439973678726967e-06 0.9999999998563103 1.4701924843062006e-05
  outer loop
    vertex 78.67050966140926 123.23368043880136 -19.977109402386823
    vertex 125.10889402634703 123.23415591181795 -19.975529491682753
    vertex 125.10889402634703 123.23415591181795 -29.975529491682753
  endloop
endfacet
facet normal -8.439973678726967e-06 0.9999999998563103 1.4701924843062006e-05
  outer loop
    vertex 125.10889402634703 123.23415591181795 -19.975529491682753
    vertex 78.67050966140926 123.23368043880136 -19.977109402386823
    vertex 111.10850966140929 123.23368043880136 -19.97336840238683
  endloop
endfacet
facet normal 1.0 -0.0 -0.0
  outer loop
    vertex 78.67089402634703 77.74303055024416 -36.725529491682714
    vertex 78.67089402634703 21.826148023143823 -29.975529491682753
    vertex 78.67089402634703 21.826148023143823 -36.725529491682714
  endloop
endfacet
facet normal 1.0 -0.0 -0.0
  outer loop
    vertex 78.67089402634703 21.826148023143823 -29.975529491682753
    vertex 78.67089402634703 77.74303055024416 -36.725529491682714
    vertex 78.67089402634703 77.74303055024416 -29.975529491682753
  endloop
endfacet
facet normal -1.0 0.0 0.0
  outer loop
    vertex 111.10889402634704 77.74303055024416 -29.975529491682753
    vertex 111.10889402634704 21.826148023143823 -36.725529491682714
    vertex 111.10889402634704 21.826148023143823 -29.975529491682753
  endloop
endfacet
facet normal -1.0 0.0 0.0
  outer loop
    vertex 111.10889402634704 21.826148023143823 -36.725529491682714
    vertex 111.10889402634704 77.74303055024416 -29.975529491682753
    vertex 111.10889402634704 77.74303055024416 -36.725529491682714
  endloop
endfacet
facet normal 1.0860845656339165e-15 -1.429857456568273e-16 -1.0
  outer loop
    vertex 88.75626502941147 102.13209416743206 -33.52552949168274
    vertex 88.75626502941147 98.84509229463004 -33.52552949168274
    vertex 88.53989402634704 100.48859323103105 -33.52552949168274
  endloop
endfacet
facet normal 1.0860845656339165e-15 -1.429857456568273e-16 -1.0
  outer loop
    vertex 88.75626502941147 98.84509229463004 -33.52552949168274
    vertex 88.75626502941147 102.13209416743206 -33.52552949168274
    vertex 89.39063271231585 103.66359323103106 -33.52552949168274
  endloop
endfacet
facet normal 1.0860845656339165e-15 -1.429857456568273e-16 -1.0
  outer loop
    vertex 88.75626502941147 98.84509229463004 -33.52552949168274
    vertex 89.39063271231585 103.66359323103106 -33.52552949168274
    vertex 89.39063271231585 97.31359323103104 -33.52552949168274
  endloop
endfacet
facet normal 1.0860845656339165e-15 -1.429857456568273e-16 -1.0
  outer loop
    vertex 89.39063271231585 97.31359323103104 -33.52552949168274
    vertex 89.39063271231585 103.66359323103106 -33.52552949168274
    vertex 90.39976596581246 104.97872129156563 -33.52552949168274
  endloop
endfacet
facet normal 1.0860845656339165e-15 -1.429857456568273e-16 -1.0
  outer loop
    vertex 89.39063271231585 97.31359323103104 -33.52552949168274
    vertex 90.39976596581246 104.97872129156563 -33.52552949168274
    vertex 90.39976596581246 95.99846517049647 -33.52552949168274
  endloop
endfacet
facet normal 1.0860845656339165e-15 -1.429857456568273e-16 -1.0
  outer loop
    vertex 90.39976596581246 95.99846517049647 -33.52552949168274
    vertex 90.39976596581246 104.97872129156563 -33.52552949168274
    vertex 91.71489402634704 105.98785454506223 -33.52552949168274
  endloop
endfacet
facet normal 1.0860845656339165e-15 -1.429857456568273e-16 -1.0
  outer loop
    vertex 90.39976596581246 95.99846517049647 -33.52552949168274
    vertex 91.71489402634704 105.98785454506223 -33.52552949168274
    vertex 91.71489402634704 94.98933191699986 -33.52552949168274
  endloop
endfacet
facet normal 1.0860845656339165e-15 -1.429857456568273e-16 -1.0
  outer loop
    vertex 91.71489402634704 94.98933191699986 -33.52552949168274
    vertex 91.71489402634704 105.98785454506223 -33.52552949168274
    vertex 93.24639308994604 106.62222222796663 -33.52552949168274
  endloop
endfacet
facet normal 1.0860845656339165e-15 -1.429857456568273e-16 -1.0
  outer loop
    vertex 91.71489402634704 94.98933191699986 -33.52552949168274
    vertex 93.24639308994604 106.62222222796663 -33.52552949168274
    vertex 93.24639308994603 94.35496423409548 -33.52552949168273
  endloop
endfacet
facet normal 1.0860845656339165e-15 -1.429857456568273e-16 -1.0
  outer loop
    vertex 93.24639308994603 94.35496423409548 -33.52552949168273
    vertex 93.24639308994604 106.62222222796663 -33.52552949168274
    vertex 94.88989402634704 94.13859323103104 -33.52552949168273
  endloop
endfacet
facet normal 1.0860845656339165e-15 -1.429857456568273e-16 -1.0
  outer loop
    vertex 94.88989402634704 94.13859323103104 -33.52552949168273
    vertex 93.24639308994604 106.62222222796663 -33.52552949168274
    vertex 94.88989402634704 106.83859323103107 -33.52552949168273
  endloop
endfacet
facet normal 1.0860845656339165e-15 -1.429857456568273e-16 -1.0
  outer loop
    vertex 94.88989402634704 94.13859323103104 -33.52552949168273
    vertex 94.88989402634704 106.83859323103107 -33.52552949168273
    vertex 96.53339496274805 106.62222222796663 -33.52552949168273
  endloop
endfacet
facet normal 1.0860845656339165e-15 -1.429857456568273e-16 -1.0
  outer loop
    vertex 94.88989402634704 94.13859323103104 -33.52552949168273
    vertex 96.53339496274805 106.62222222796663 -33.52552949168273
    vertex 96.53339496274803 94.35496423409548 -33.525529491682725
  endloop
endfacet
facet normal 1.0860845656339165e-15 -1.429857456568273e-16 -1.0
  outer loop
    vertex 96.53339496274803 94.35496423409548 -33.525529491682725
    vertex 96.53339496274805 106.62222222796663 -33.52552949168273
    vertex 98.06489402634703 94.98933191699986 -33.525529491682725
  endloop
endfacet
facet normal 1.0860845656339165e-15 -1.429857456568273e-16 -1.0
  outer loop
    vertex 98.06489402634703 94.98933191699986 -33.525529491682725
    vertex 96.53339496274805 106.62222222796663 -33.52552949168273
    vertex 98.06489402634703 105.98785454506223 -33.525529491682725
  endloop
endfacet
facet normal 1.0860845656339165e-15 -1.429857456568273e-16 -1.0
  outer loop
    vertex 98.06489402634703 94.98933191699986 -33.525529491682725
    vertex 98.06489402634703 105.98785454506223 -33.525529491682725
    vertex 99.38002208688162 104.97872129156563 -33.525529491682725
  endloop
endfacet
facet normal 1.0860845656339165e-15 -1.429857456568273e-16 -1.0
  outer loop
    vertex 98.06489402634703 94.98933191699986 -33.525529491682725
    vertex 99.38002208688162 104.97872129156563 -33.525529491682725
    vertex 99.38002208688162 95.99846517049647 -33.525529491682725
  endloop
endfacet
facet normal 1.0860845656339165e-15 -1.429857456568273e-16 -1.0
  outer loop
    vertex 99.38002208688162 95.99846517049647 -33.525529491682725
    vertex 99.38002208688162 104.97872129156563 -33.525529491682725
    vertex 100.38915534037822 103.66359323103104 -33.525529491682725
  endloop
endfacet
facet normal 1.0860845656339165e-15 -1.429857456568273e-16 -1.0
  outer loop
    vertex 99.38002208688162 95.99846517049647 -33.525529491682725
    vertex 100.38915534037822 103.66359323103104 -33.525529491682725
    vertex 100.38915534037822 97.31359323103104 -33.525529491682725
  endloop
endfacet
facet normal 1.0860845656339165e-15 -1.429857456568273e-16 -1.0
  outer loop
    vertex 100.38915534037822 97.31359323103104 -33.525529491682725
    vertex 100.38915534037822 103.66359323103104 -33.525529491682725
    vertex 101.02352302328262 98.84509229463004 -33.525529491682725
  endloop
endfacet
facet normal 1.0860845656339165e-15 -1.429857456568273e-16 -1.0
  outer loop
    vertex 101.02352302328262 98.84509229463004 -33.525529491682725
    vertex 100.38915534037822 103.66359323103104 -33.525529491682725
    vertex 101.02352302328262 102.13209416743206 -33.525529491682725
  endloop
endfacet
facet normal 1.0860845656339165e-15 -1.429857456568273e-16 -1.0
  outer loop
    vertex 101.02352302328262 98.84509229463004 -33.525529491682725
    vertex 101.02352302328262 102.13209416743206 -33.525529491682725
    vertex 101.23989402634705 100.48859323103105 -33.525529491682725
  endloop
endfacet
facet normal -1.0 0.0 0.0
  outer loop
    vertex 64.67089402634703 123.23415591181795 -19.975529491682753
    vertex 64.67089402634703 0.38107802314382555 -29.975529491682753
    vertex 64.67089402634703 0.38107802314382555 -19.975529491682753
  endloop
endfacet
facet normal -1.0 0.0 0.0
  outer loop
    vertex 64.67089402634703 0.38107802314382555 -29.975529491682753
    vertex 64.67089402634703 123.23415591181795 -19.975529491682753
    vertex 64.67089402634703 123.23415591181795 -29.975529491682753
  endloop
endfacet
facet normal 1.0 0.0 0.0
  outer loop
    vertex 125.10889402634703 123.23415591181795 -29.975529491682753
    vertex 125.10889402634703 0.38107802314382555 -19.975529491682753
    vertex 125.10889402634703 0.38107802314382555 -29.975529491682753
  endloop
endfacet
facet normal 1.0 0.0 0.0
  outer loop
    vertex 125.10889402634703 0.38107802314382555 -19.975529491682753
    vertex 125.10889402634703 123.23415591181795 -29.975529491682753
    vertex 125.10889402634703 123.23415591181795 -19.975529491682753
  endloop
endfacet
facet normal -0.13052619222005404 0.9914448613738102 -2.835249655623305e-16
  outer loop
    vertex 94.88989402634704 94.13859323103104 -33.52552949168273
    vertex 96.53339496274803 94.35496423409548 -36.72552949168273
    vertex 94.88989402634704 94.13859323103104 -36.725529491682735
  endloop
endfacet
facet normal -0.13052619222005404 0.9914448613738102 -2.835249655623305e-16
  outer loop
    vertex 96.53339496274803 94.35496423409548 -36.72552949168273
    vertex 94.88989402634704 94.13859323103104 -33.52552949168273
    vertex 96.53339496274803 94.35496423409548 -33.525529491682725
  endloop
endfacet
facet normal 0.13052619222005318 0.9914448613738103 1.5109245351520783e-30
  outer loop
    vertex 93.24639308994603 94.35496423409548 -33.52552949168273
    vertex 94.88989402634704 94.13859323103104 -36.725529491682735
    vertex 93.24639308994603 94.35496423409548 -36.725529491682735
  endloop
endfacet
facet normal 0.13052619222005318 0.9914448613738103 1.5109245351520783e-30
  outer loop
    vertex 94.88989402634704 94.13859323103104 -36.725529491682735
    vertex 93.24639308994603 94.35496423409548 -33.52552949168273
    vertex 94.88989402634704 94.13859323103104 -33.52552949168273
  endloop
endfacet
facet normal 0.38268343236508723 0.9238795325112878 2.8352496556232447e-16
  outer loop
    vertex 91.71489402634704 94.98933191699986 -33.52552949168274
    vertex 93.24639308994603 94.35496423409548 -36.725529491682735
    vertex 91.71489402634704 94.98933191699986 -36.72552949168274
  endloop
endfacet
facet normal 0.38268343236508723 0.9238795325112878 2.8352496556232447e-16
  outer loop
    vertex 93.24639308994603 94.35496423409548 -36.725529491682735
    vertex 91.71489402634704 94.98933191699986 -33.52552949168274
    vertex 93.24639308994603 94.35496423409548 -33.52552949168273
  endloop
endfacet
facet normal 0.6087614290087205 0.7933533402912354 5.477281732687416e-16
  outer loop
    vertex 90.39976596581246 95.99846517049647 -33.52552949168274
    vertex 91.71489402634704 94.98933191699986 -36.72552949168274
    vertex 90.39976596581246 95.99846517049647 -36.72552949168274
  endloop
endfacet
facet normal 0.6087614290087205 0.7933533402912354 5.477281732687416e-16
  outer loop
    vertex 91.71489402634704 94.98933191699986 -36.72552949168274
    vertex 90.39976596581246 95.99846517049647 -33.52552949168274
    vertex 91.71489402634704 94.98933191699986 -33.52552949168274
  endloop
endfacet
facet normal 0.7933533402912354 0.6087614290087205 7.746046111304954e-16
  outer loop
    vertex 89.39063271231585 97.31359323103104 -36.72552949168274
    vertex 90.39976596581246 95.99846517049647 -33.52552949168274
    vertex 90.39976596581246 95.99846517049647 -36.72552949168274
  endloop
endfacet
facet normal 0.7933533402912354 0.6087614290087205 7.746046111304954e-16
  outer loop
    vertex 90.39976596581246 95.99846517049647 -33.52552949168274
    vertex 89.39063271231585 97.31359323103104 -36.72552949168274
    vertex 89.39063271231585 97.31359323103104 -33.52552949168274
  endloop
endfacet
facet normal 0.923879532511289 0.3826834323650849 9.486930248383532e-16
  outer loop
    vertex 88.75626502941147 98.84509229463004 -36.72552949168274
    vertex 89.39063271231585 97.31359323103104 -33.52552949168274
    vertex 89.39063271231585 97.31359323103104 -36.72552949168274
  endloop
endfacet
facet normal 0.923879532511289 0.3826834323650849 9.486930248383532e-16
  outer loop
    vertex 89.39063271231585 97.31359323103104 -33.52552949168274
    vertex 88.75626502941147 98.84509229463004 -36.72552949168274
    vertex 88.75626502941147 98.84509229463004 -33.52552949168274
  endloop
endfacet
facet normal 0.9914448613738102 0.13052619222005404 1.0581295766928223e-15
  outer loop
    vertex 88.53989402634704 100.48859323103105 -36.72552949168274
    vertex 88.75626502941147 98.84509229463004 -33.52552949168274
    vertex 88.75626502941147 98.84509229463004 -36.72552949168274
  endloop
endfacet
facet normal 0.9914448613738102 0.13052619222005404 1.0581295766928223e-15
  outer loop
    vertex 88.75626502941147 98.84509229463004 -33.52552949168274
    vertex 88.53989402634704 100.48859323103105 -36.72552949168274
    vertex 88.53989402634704 100.48859323103105 -33.52552949168274
  endloop
endfacet
facet normal 0.9914448613738103 -0.13052619222005318 1.0954563465374841e-15
  outer loop
    vertex 88.75626502941147 102.13209416743206 -36.72552949168274
    vertex 88.53989402634704 100.48859323103105 -33.52552949168274
    vertex 88.53989402634704 100.48859323103105 -36.72552949168274
  endloop
endfacet
facet normal 0.9914448613738103 -0.13052619222005318 1.0954563465374841e-15
  outer loop
    vertex 88.53989402634704 100.48859323103105 -33.52552949168274
    vertex 88.75626502941147 102.13209416743206 -36.72552949168274
    vertex 88.75626502941147 102.13209416743206 -33.52552949168274
  endloop
endfacet
facet normal 0.923879532511289 -0.3826834323650849 1.0581295766928247e-15
  outer loop
    vertex 89.39063271231585 103.66359323103106 -36.72552949168274
    vertex 88.75626502941147 102.13209416743206 -33.52552949168274
    vertex 88.75626502941147 102.13209416743206 -36.72552949168274
  endloop
endfacet
facet normal 0.923879532511289 -0.3826834323650849 1.0581295766928247e-15
  outer loop
    vertex 88.75626502941147 102.13209416743206 -33.52552949168274
    vertex 89.39063271231585 103.66359323103106 -36.72552949168274
    vertex 89.39063271231585 103.66359323103106 -33.52552949168274
  endloop
endfacet
facet normal 0.7933533402912328 -0.6087614290087238 9.486930248383485e-16
  outer loop
    vertex 90.39976596581246 104.97872129156563 -36.72552949168274
    vertex 89.39063271231585 103.66359323103106 -33.52552949168274
    vertex 89.39063271231585 103.66359323103106 -36.72552949168274
  endloop
endfacet
facet normal 0.7933533402912328 -0.6087614290087238 9.486930248383485e-16
  outer loop
    vertex 89.39063271231585 103.66359323103106 -33.52552949168274
    vertex 90.39976596581246 104.97872129156563 -36.72552949168274
    vertex 90.39976596581246 104.97872129156563 -33.52552949168274
  endloop
endfacet
facet normal 0.6087614290087205 -0.7933533402912354 7.746046111304955e-16
  outer loop
    vertex 91.71489402634704 105.98785454506223 -33.52552949168274
    vertex 90.39976596581246 104.97872129156563 -36.72552949168274
    vertex 91.71489402634704 105.98785454506223 -36.72552949168274
  endloop
endfacet
facet normal 0.6087614290087205 -0.7933533402912354 7.746046111304955e-16
  outer loop
    vertex 90.39976596581246 104.97872129156563 -36.72552949168274
    vertex 91.71489402634704 105.98785454506223 -33.52552949168274
    vertex 90.39976596581246 104.97872129156563 -33.52552949168274
  endloop
endfacet
facet normal 0.3826834323650849 -0.923879532511289 5.477281732687371e-16
  outer loop
    vertex 93.24639308994604 106.62222222796663 -33.52552949168274
    vertex 91.71489402634704 105.98785454506223 -36.72552949168274
    vertex 93.24639308994604 106.62222222796663 -36.72552949168274
  endloop
endfacet
facet normal 0.3826834323650849 -0.923879532511289 5.477281732687371e-16
  outer loop
    vertex 91.71489402634704 105.98785454506223 -36.72552949168274
    vertex 93.24639308994604 106.62222222796663 -33.52552949168274
    vertex 91.71489402634704 105.98785454506223 -33.52552949168274
  endloop
endfacet
facet normal 0.13052619222006073 -0.9914448613738094 2.8352496556233764e-16
  outer loop
    vertex 94.88989402634704 106.83859323103107 -36.725529491682735
    vertex 93.24639308994604 106.62222222796663 -33.52552949168274
    vertex 93.24639308994604 106.62222222796663 -36.72552949168274
  endloop
endfacet
facet normal 0.13052619222006073 -0.9914448613738094 2.8352496556233764e-16
  outer loop
    vertex 93.24639308994604 106.62222222796663 -33.52552949168274
    vertex 94.88989402634704 106.83859323103107 -36.725529491682735
    vertex 94.88989402634704 106.83859323103107 -33.52552949168273
  endloop
endfacet
facet normal -0.13052619222005984 -0.9914448613738094 -8.900289839880202e-30
  outer loop
    vertex 96.53339496274805 106.62222222796663 -33.52552949168273
    vertex 94.88989402634704 106.83859323103107 -36.725529491682735
    vertex 96.53339496274805 106.62222222796663 -36.725529491682735
  endloop
endfacet
facet normal -0.13052619222005984 -0.9914448613738094 -8.900289839880202e-30
  outer loop
    vertex 94.88989402634704 106.83859323103107 -36.725529491682735
    vertex 96.53339496274805 106.62222222796663 -33.52552949168273
    vertex 94.88989402634704 106.83859323103107 -33.52552949168273
  endloop
endfacet
facet normal -0.38268343236508723 -0.9238795325112878 -2.8352496556232447e-16
  outer loop
    vertex 98.06489402634703 105.98785454506223 -36.72552949168273
    vertex 96.53339496274805 106.62222222796663 -33.52552949168273
    vertex 96.53339496274805 106.62222222796663 -36.725529491682735
  endloop
endfacet
facet normal -0.38268343236508723 -0.9238795325112878 -2.8352496556232447e-16
  outer loop
    vertex 96.53339496274805 106.62222222796663 -33.52552949168273
    vertex 98.06489402634703 105.98785454506223 -36.72552949168273
    vertex 98.06489402634703 105.98785454506223 -33.525529491682725
  endloop
endfacet
facet normal -0.6087614290087205 -0.7933533402912354 -5.477281732687416e-16
  outer loop
    vertex 99.38002208688162 104.97872129156563 -33.525529491682725
    vertex 98.06489402634703 105.98785454506223 -36.72552949168273
    vertex 99.38002208688162 104.97872129156563 -36.72552949168273
  endloop
endfacet
facet normal -0.6087614290087205 -0.7933533402912354 -5.477281732687416e-16
  outer loop
    vertex 98.06489402634703 105.98785454506223 -36.72552949168273
    vertex 99.38002208688162 104.97872129156563 -33.525529491682725
    vertex 98.06489402634703 105.98785454506223 -33.525529491682725
  endloop
endfacet
facet normal -0.7933533402912378 -0.6087614290087172 -7.746046111304986e-16
  outer loop
    vertex 99.38002208688162 104.97872129156563 -33.525529491682725
    vertex 100.38915534037822 103.66359323103104 -36.72552949168273
    vertex 100.38915534037822 103.66359323103104 -33.525529491682725
  endloop
endfacet
facet normal -0.7933533402912378 -0.6087614290087172 -7.746046111304986e-16
  outer loop
    vertex 100.38915534037822 103.66359323103104 -36.72552949168273
    vertex 99.38002208688162 104.97872129156563 -33.525529491682725
    vertex 99.38002208688162 104.97872129156563 -36.72552949168273
  endloop
endfacet
facet normal -0.923879532511287 -0.38268343236508967 -9.486930248383505e-16
  outer loop
    vertex 100.38915534037822 103.66359323103104 -33.525529491682725
    vertex 101.02352302328262 102.13209416743206 -36.72552949168273
    vertex 101.02352302328262 102.13209416743206 -33.525529491682725
  endloop
endfacet
facet normal -0.923879532511287 -0.38268343236508967 -9.486930248383505e-16
  outer loop
    vertex 101.02352302328262 102.13209416743206 -36.72552949168273
    vertex 100.38915534037822 103.66359323103104 -33.525529491682725
    vertex 100.38915534037822 103.66359323103104 -36.72552949168273
  endloop
endfacet
facet normal -0.9914448613738103 -0.13052619222005318 -1.0581295766928225e-15
  outer loop
    vertex 101.02352302328262 102.13209416743206 -33.525529491682725
    vertex 101.23989402634705 100.48859323103105 -36.72552949168273
    vertex 101.23989402634705 100.48859323103105 -33.525529491682725
  endloop
endfacet
facet normal -0.9914448613738103 -0.13052619222005318 -1.0581295766928225e-15
  outer loop
    vertex 101.23989402634705 100.48859323103105 -36.72552949168273
    vertex 101.02352302328262 102.13209416743206 -33.525529491682725
    vertex 101.02352302328262 102.13209416743206 -36.72552949168273
  endloop
endfacet
facet normal -0.9914448613738103 0.13052619222005318 -1.0954563465374841e-15
  outer loop
    vertex 101.23989402634705 100.48859323103105 -33.525529491682725
    vertex 101.02352302328262 98.84509229463004 -36.72552949168273
    vertex 101.02352302328262 98.84509229463004 -33.525529491682725
  endloop
endfacet
facet normal -0.9914448613738103 0.13052619222005318 -1.0954563465374841e-15
  outer loop
    vertex 101.02352302328262 98.84509229463004 -36.72552949168273
    vertex 101.23989402634705 100.48859323103105 -33.525529491682725
    vertex 101.23989402634705 100.48859323103105 -36.72552949168273
  endloop
endfacet
facet normal -0.9238795325112855 0.38268343236509306 -1.0581295766928221e-15
  outer loop
    vertex 101.02352302328262 98.84509229463004 -33.525529491682725
    vertex 100.38915534037822 97.31359323103104 -36.72552949168273
    vertex 100.38915534037822 97.31359323103104 -33.525529491682725
  endloop
endfacet
facet normal -0.9238795325112855 0.38268343236509306 -1.0581295766928221e-15
  outer loop
    vertex 100.38915534037822 97.31359323103104 -36.72552949168273
    vertex 101.02352302328262 98.84509229463004 -33.525529491682725
    vertex 101.02352302328262 98.84509229463004 -36.72552949168273
  endloop
endfacet
facet normal -0.7933533402912386 0.6087614290087162 -9.486930248383534e-16
  outer loop
    vertex 100.38915534037822 97.31359323103104 -33.525529491682725
    vertex 99.38002208688162 95.99846517049647 -36.72552949168273
    vertex 99.38002208688162 95.99846517049647 -33.525529491682725
  endloop
endfacet
facet normal -0.7933533402912386 0.6087614290087162 -9.486930248383534e-16
  outer loop
    vertex 99.38002208688162 95.99846517049647 -36.72552949168273
    vertex 100.38915534037822 97.31359323103104 -33.525529491682725
    vertex 100.38915534037822 97.31359323103104 -36.72552949168273
  endloop
endfacet
facet normal -0.6087614290087205 0.7933533402912354 -7.746046111304955e-16
  outer loop
    vertex 98.06489402634703 94.98933191699986 -33.525529491682725
    vertex 99.38002208688162 95.99846517049647 -36.72552949168273
    vertex 98.06489402634703 94.98933191699986 -36.72552949168273
  endloop
endfacet
facet normal -0.6087614290087205 0.7933533402912354 -7.746046111304955e-16
  outer loop
    vertex 99.38002208688162 95.99846517049647 -36.72552949168273
    vertex 98.06489402634703 94.98933191699986 -33.525529491682725
    vertex 99.38002208688162 95.99846517049647 -33.525529491682725
  endloop
endfacet
facet normal -0.3826834323650849 0.923879532511289 -5.477281732687371e-16
  outer loop
    vertex 96.53339496274803 94.35496423409548 -33.525529491682725
    vertex 98.06489402634703 94.98933191699986 -36.72552949168273
    vertex 96.53339496274803 94.35496423409548 -36.72552949168273
  endloop
endfacet
facet normal -0.3826834323650849 0.923879532511289 -5.477281732687371e-16
  outer loop
    vertex 98.06489402634703 94.98933191699986 -36.72552949168273
    vertex 96.53339496274803 94.35496423409548 -33.525529491682725
    vertex 98.06489402634703 94.98933191699986 -33.525529491682725
  endloop
endfacet
facet normal -0.0 1.0 -0.0
  outer loop
    vertex 78.67089402634703 21.826148023143823 -29.975529491682753
    vertex 111.10889402634704 21.826148023143823 -36.725529491682714
    vertex 78.67089402634703 21.826148023143823 -36.725529491682714
  endloop
endfacet
facet normal -0.0 1.0 -0.0
  outer loop
    vertex 111.10889402634704 21.826148023143823 -36.725529491682714
    vertex 78.67089402634703 21.826148023143823 -29.975529491682753
    vertex 111.10889402634704 21.826148023143823 -29.975529491682753
  endloop
endfacet
facet normal -0.0 1.0 -0.0
  outer loop
    vertex 111.10889402634704 21.826148023143823 -29.975529491682753
    vertex 78.67089402634703 21.826148023143823 -29.975529491682753
    vertex 78.67089402634703 21.826148023143823 -19.975529491682746
  endloop
endfacet
facet normal -0.0 1.0 -0.0
  outer loop
    vertex 111.10889402634704 21.826148023143823 -29.975529491682753
    vertex 78.67089402634703 21.826148023143823 -19.975529491682746
    vertex 111.10889402634704 21.826148023143823 -19.975529491682746
  endloop
endfacet
facet normal -1.2568849860058722e-21 -0.9999999988692698 -4.755481483918134e-05
  outer loop
    vertex 111.10850966140926 77.74255507722759 -19.977109402386823
    vertex 78.67089402634703 77.74303055024416 -29.975529491682753
    vertex 111.10889402634704 77.74303055024416 -29.975529491682753
  endloop
endfacet
facet normal 3.77065495801762e-21 -0.9999999988692698 -4.755481483918136e-05
  outer loop
    vertex 78.67050966140926 77.74255507722759 -19.977109402386823
    vertex 78.67089402634703 77.74303055024416 -29.975529491682753
    vertex 111.10850966140926 77.74255507722759 -19.977109402386823
  endloop
endfacet
facet normal 0.0 0.0 1.0
  outer loop
    vertex 111.10850966140926 77.74255507722759 -19.977109402386823
    vertex 78.67050966140926 123.23368043880136 -19.977109402386823
    vertex 78.67050966140926 77.74255507722759 -19.977109402386823
  endloop
endfacet
facet normal -0.00011532770092063458 -8.223581924450604e-05 0.9999999899683957
  outer loop
    vertex 111.10850966140929 123.23368043880136 -19.97336840238683
    vertex 78.67050966140926 123.23368043880136 -19.977109402386823
    vertex 111.10850966140926 77.74255507722759 -19.977109402386823
  endloop
endfacet
facet normal -0.9999999999763747 -6.873920518559e-06 0.0
  outer loop
    vertex 111.10850966140926 77.74255507722759 -19.977109402386823
    vertex 111.10889402634704 21.826148023143823 -29.975529491682753
    vertex 111.10889402634704 21.826148023143823 -19.975529491682746
  endloop
endfacet
facet normal -0.9999999992610846 0.0 -3.844256733218514e-05
  outer loop
    vertex 111.10889402634704 77.74303055024416 -29.975529491682753
    vertex 111.10889402634704 21.826148023143823 -29.975529491682753
    vertex 111.10850966140926 77.74255507722759 -19.977109402386823
  endloop
endfacet
facet normal 0.0 1.0 0.0
  outer loop
    vertex 59.67089402634703 123.23415591181795 -29.975529491682753
    vertex 94.88989402634702 123.23415591181795 -36.72552949168275
    vertex 59.67089402634703 123.23415591181795 -36.72552949168275
  endloop
endfacet
facet normal -0.0 -0.0 1.0
  outer loop
    vertex 78.67089402634703 0.38107802314382555 -19.975529491682753
    vertex 64.67089402634703 123.23415591181795 -19.975529491682753
    vertex 64.67089402634703 0.38107802314382555 -19.975529491682753
  endloop
endfacet
endsolid Odroid-Carputer3
