solid HC-SR04_my_Case
facet normal -0.8968727415326883 0.44228869021900163 0.0
  outer loop
    vertex -0.7991803316152504 24.0 17.0
    vertex -2.2905961375231354 20.975707920662717 0.0
    vertex -2.2905961375231354 20.975707920662717 17.0
  endloop
endfacet
facet normal -0.8968727415326883 0.44228869021900163 0.0
  outer loop
    vertex -2.2905961375231354 20.975707920662717 0.0
    vertex -0.7991803316152504 24.0 17.0
    vertex -0.7991803316152504 24.0 0.0
  endloop
endfacet
facet normal -0.0 1.0 0.0
  outer loop
    vertex -0.7991803316152504 24.0 17.0
    vertex 46.799180331615254 24.0 0.0
    vertex -0.7991803316152504 24.0 0.0
  endloop
endfacet
facet normal -0.0 1.0 0.0
  outer loop
    vertex 46.799180331615254 24.0 0.0
    vertex -0.7991803316152504 24.0 17.0
    vertex 46.799180331615254 24.0 17.0
  endloop
endfacet
facet normal 0.0 -1.0 0.0
  outer loop
    vertex 46.799180331615254 -3.0 0.0
    vertex 29.000000000000004 -3.0 7.999999999999999
    vertex -0.7991803316152516 -3.0 0.0
  endloop
endfacet
facet normal 0.0 -1.0 0.0
  outer loop
    vertex 29.000000000000004 -3.0 7.999999999999999
    vertex 46.799180331615254 -3.0 0.0
    vertex 46.799180331615254 -3.0 17.0
  endloop
endfacet
facet normal 0.0 -1.0 0.0
  outer loop
    vertex 29.000000000000004 -3.0 7.999999999999999
    vertex 46.799180331615254 -3.0 17.0
    vertex 29.000000000000004 -3.0000000000000013 15.0
  endloop
endfacet
facet normal 0.0 -1.0 0.0
  outer loop
    vertex -0.7991803316152516 -3.0 0.0
    vertex 17.0 -3.0 7.999999999999999
    vertex -0.7991803316152516 -3.0 17.0
  endloop
endfacet
facet normal 0.0 -1.0 0.0
  outer loop
    vertex 17.0 -3.0 7.999999999999999
    vertex -0.7991803316152516 -3.0 0.0
    vertex 29.000000000000004 -3.0 7.999999999999999
  endloop
endfacet
facet normal 0.0 -1.0 0.0
  outer loop
    vertex -0.7991803316152516 -3.0 17.0
    vertex 17.0 -3.0 7.999999999999999
    vertex 17.0 -3.0000000000000013 14.999999999999998
  endloop
endfacet
facet normal 0.0 -1.0 0.0
  outer loop
    vertex -0.7991803316152516 -3.0 17.0
    vertex 17.0 -3.0000000000000013 14.999999999999998
    vertex 29.000000000000004 -3.0000000000000013 15.0
  endloop
endfacet
facet normal 0.0 -1.0 0.0
  outer loop
    vertex -0.7991803316152516 -3.0 17.0
    vertex 29.000000000000004 -3.0000000000000013 15.0
    vertex 46.799180331615254 -3.0 17.0
  endloop
endfacet
facet normal -0.8968727415326884 -0.44228869021900136 -0.0
  outer loop
    vertex -2.2905961375231443 0.02429207933730162 17.0
    vertex -0.7991803316152516 -3.0 0.0
    vertex -0.7991803316152516 -3.0 17.0
  endloop
endfacet
facet normal -0.8968727415326884 -0.44228869021900136 -0.0
  outer loop
    vertex -0.7991803316152516 -3.0 0.0
    vertex -2.2905961375231443 0.02429207933730162 17.0
    vertex -2.2905961375231443 0.02429207933730162 0.0
  endloop
endfacet
facet normal -0.9469301294951058 -0.3214394653031612 -0.0
  outer loop
    vertex -3.0 2.114128468051985 17.0
    vertex -2.2905961375231443 0.02429207933730162 0.0
    vertex -2.2905961375231443 0.02429207933730162 17.0
  endloop
endfacet
facet normal -0.9469301294951058 -0.3214394653031612 -0.0
  outer loop
    vertex -2.2905961375231443 0.02429207933730162 0.0
    vertex -3.0 2.114128468051985 17.0
    vertex -3.0 2.114128468051985 0.0
  endloop
endfacet
facet normal -0.9469301294951058 -0.32143946530316114 -0.0
  outer loop
    vertex -3.4415858473211935 3.414998425612083 17.0
    vertex -3.0 2.114128468051985 0.0
    vertex -3.0 2.114128468051985 17.0
  endloop
endfacet
facet normal -0.9469301294951058 -0.32143946530316114 -0.0
  outer loop
    vertex -3.0 2.114128468051985 0.0
    vertex -3.4415858473211935 3.414998425612083 17.0
    vertex -3.4415858473211935 3.414998425612083 0.0
  endloop
endfacet
facet normal -0.9807852804032307 -0.19509032201612778 -0.0
  outer loop
    vertex -4.140152692278991 6.926931113158185 17.0
    vertex -3.4415858473211935 3.414998425612083 0.0
    vertex -3.4415858473211935 3.414998425612083 17.0
  endloop
endfacet
facet normal -0.9807852804032307 -0.19509032201612778 -0.0
  outer loop
    vertex -3.4415858473211935 3.414998425612083 0.0
    vertex -4.140152692278991 6.926931113158185 17.0
    vertex -4.140152692278991 6.926931113158185 0.0
  endloop
endfacet
facet normal -0.9978589232386035 -0.06540312923014385 -0.0
  outer loop
    vertex -4.374343999999995 10.5 17.0
    vertex -4.140152692278991 6.926931113158185 0.0
    vertex -4.140152692278991 6.926931113158185 17.0
  endloop
endfacet
facet normal -0.9978589232386035 -0.06540312923014385 -0.0
  outer loop
    vertex -4.140152692278991 6.926931113158185 0.0
    vertex -4.374343999999995 10.5 17.0
    vertex -4.374343999999995 10.5 0.0
  endloop
endfacet
facet normal -0.9978589232386035 0.06540312923014334 0.0
  outer loop
    vertex -4.140152692278991 14.073068886841844 17.0
    vertex -4.374343999999995 10.5 0.0
    vertex -4.374343999999995 10.5 17.0
  endloop
endfacet
facet normal -0.9978589232386035 0.06540312923014334 0.0
  outer loop
    vertex -4.374343999999995 10.5 0.0
    vertex -4.140152692278991 14.073068886841844 17.0
    vertex -4.140152692278991 14.073068886841844 0.0
  endloop
endfacet
facet normal -0.9807852804032303 0.19509032201612952 0.0
  outer loop
    vertex -3.4415858473211878 17.58500157438794 17.0
    vertex -4.140152692278991 14.073068886841844 0.0
    vertex -4.140152692278991 14.073068886841844 17.0
  endloop
endfacet
facet normal -0.9807852804032303 0.19509032201612952 0.0
  outer loop
    vertex -4.140152692278991 14.073068886841844 0.0
    vertex -3.4415858473211878 17.58500157438794 17.0
    vertex -3.4415858473211878 17.58500157438794 0.0
  endloop
endfacet
facet normal -0.9469301294951056 0.3214394653031621 0.0
  outer loop
    vertex -3.0 18.88587153194802 17.0
    vertex -3.4415858473211878 17.58500157438794 0.0
    vertex -3.4415858473211878 17.58500157438794 17.0
  endloop
endfacet
facet normal -0.9469301294951056 0.3214394653031621 0.0
  outer loop
    vertex -3.4415858473211878 17.58500157438794 0.0
    vertex -3.0 18.88587153194802 17.0
    vertex -3.0 18.88587153194802 0.0
  endloop
endfacet
facet normal -0.9469301294951054 0.32143946530316275 0.0
  outer loop
    vertex -2.2905961375231354 20.975707920662717 17.0
    vertex -3.0 18.88587153194802 0.0
    vertex -3.0 18.88587153194802 17.0
  endloop
endfacet
facet normal -0.9469301294951054 0.32143946530316275 0.0
  outer loop
    vertex -3.0 18.88587153194802 0.0
    vertex -2.2905961375231354 20.975707920662717 17.0
    vertex -2.2905961375231354 20.975707920662717 0.0
  endloop
endfacet
facet normal -0.0 -0.0 1.0
  outer loop
    vertex 1.460769515458674 17.900000000000002 3.0
    vertex 1.4607695154586742 19.1 3.0
    vertex 1.3000000000000005 18.5 3.0
  endloop
endfacet
facet normal -0.0 -0.0 1.0
  outer loop
    vertex 1.4607695154586742 19.1 3.0
    vertex 1.460769515458674 17.900000000000002 3.0
    vertex 1.9000000000000001 17.460769515458676 3.0
  endloop
endfacet
facet normal -0.0 -0.0 1.0
  outer loop
    vertex 1.4607695154586742 19.1 3.0
    vertex 1.9000000000000001 17.460769515458676 3.0
    vertex 1.9000000000000008 19.539230484541328 3.0
  endloop
endfacet
facet normal -0.0 -0.0 1.0
  outer loop
    vertex 1.9000000000000008 19.539230484541328 3.0
    vertex 1.9000000000000001 17.460769515458676 3.0
    vertex 2.5 17.3 3.0
  endloop
endfacet
facet normal -0.0 -0.0 1.0
  outer loop
    vertex 1.9000000000000008 19.539230484541328 3.0
    vertex 2.5 17.3 3.0
    vertex 2.5000000000000004 19.7 3.0
  endloop
endfacet
facet normal -0.0 -0.0 1.0
  outer loop
    vertex 2.5000000000000004 19.7 3.0
    vertex 2.5 17.3 3.0
    vertex 3.099999999999999 17.460769515458672 3.0
  endloop
endfacet
facet normal -0.0 -0.0 1.0
  outer loop
    vertex 2.5000000000000004 19.7 3.0
    vertex 3.099999999999999 17.460769515458672 3.0
    vertex 3.1000000000000005 19.539230484541324 3.0
  endloop
endfacet
facet normal -0.0 -0.0 1.0
  outer loop
    vertex 3.1000000000000005 19.539230484541324 3.0
    vertex 3.099999999999999 17.460769515458672 3.0
    vertex 3.5392304845413265 17.9 3.0
  endloop
endfacet
facet normal -0.0 -0.0 1.0
  outer loop
    vertex 3.1000000000000005 19.539230484541324 3.0
    vertex 3.5392304845413265 17.9 3.0
    vertex 3.5392304845413265 19.099999999999998 3.0
  endloop
endfacet
facet normal -0.0 -0.0 1.0
  outer loop
    vertex 3.5392304845413265 19.099999999999998 3.0
    vertex 3.5392304845413265 17.9 3.0
    vertex 3.7 18.5 3.0
  endloop
endfacet
facet normal -0.0 -0.0 1.0
  outer loop
    vertex 42.46076951545867 17.900000000000002 3.0
    vertex 42.46076951545867 19.099999999999998 3.0
    vertex 42.300000000000004 18.5 3.0
  endloop
endfacet
facet normal -0.0 -0.0 1.0
  outer loop
    vertex 42.46076951545867 19.099999999999998 3.0
    vertex 42.46076951545867 17.900000000000002 3.0
    vertex 42.9 17.460769515458676 3.0
  endloop
endfacet
facet normal -0.0 -0.0 1.0
  outer loop
    vertex 42.46076951545867 19.099999999999998 3.0
    vertex 42.9 17.460769515458676 3.0
    vertex 42.9 19.539230484541324 3.0
  endloop
endfacet
facet normal -0.0 -0.0 1.0
  outer loop
    vertex 42.9 19.539230484541324 3.0
    vertex 42.9 17.460769515458676 3.0
    vertex 43.5 17.3 3.0
  endloop
endfacet
facet normal -0.0 -0.0 1.0
  outer loop
    vertex 42.9 19.539230484541324 3.0
    vertex 43.5 17.3 3.0
    vertex 43.5 19.7 3.0
  endloop
endfacet
facet normal -0.0 -0.0 1.0
  outer loop
    vertex 43.5 19.7 3.0
    vertex 43.5 17.3 3.0
    vertex 44.1 17.460769515458676 3.0
  endloop
endfacet
facet normal -0.0 -0.0 1.0
  outer loop
    vertex 43.5 19.7 3.0
    vertex 44.1 17.460769515458676 3.0
    vertex 44.1 19.539230484541324 3.0
  endloop
endfacet
facet normal -0.0 -0.0 1.0
  outer loop
    vertex 44.1 19.539230484541324 3.0
    vertex 44.1 17.460769515458676 3.0
    vertex 44.53923048454132 17.900000000000002 3.0
  endloop
endfacet
facet normal -0.0 -0.0 1.0
  outer loop
    vertex 44.1 19.539230484541324 3.0
    vertex 44.53923048454132 17.900000000000002 3.0
    vertex 44.53923048454132 19.099999999999998 3.0
  endloop
endfacet
facet normal -0.0 -0.0 1.0
  outer loop
    vertex 44.53923048454132 19.099999999999998 3.0
    vertex 44.53923048454132 17.900000000000002 3.0
    vertex 44.699999999999996 18.5 3.0
  endloop
endfacet
facet normal -0.0 -0.0 1.0
  outer loop
    vertex 42.46076951545867 1.900000000000001 3.0
    vertex 42.46076951545867 3.0999999999999988 3.0
    vertex 42.300000000000004 2.4999999999999996 3.0
  endloop
endfacet
facet normal -0.0 -0.0 1.0
  outer loop
    vertex 42.46076951545867 3.0999999999999988 3.0
    vertex 42.46076951545867 1.900000000000001 3.0
    vertex 42.9 1.4607695154586755 3.0
  endloop
endfacet
facet normal -0.0 -0.0 1.0
  outer loop
    vertex 42.46076951545867 3.0999999999999988 3.0
    vertex 42.9 1.4607695154586755 3.0
    vertex 42.9 3.5392304845413243 3.0
  endloop
endfacet
facet normal -0.0 -0.0 1.0
  outer loop
    vertex 42.9 3.5392304845413243 3.0
    vertex 42.9 1.4607695154586755 3.0
    vertex 43.5 1.3000000000000018 3.0
  endloop
endfacet
facet normal -0.0 -0.0 1.0
  outer loop
    vertex 42.9 3.5392304845413243 3.0
    vertex 43.5 1.3000000000000018 3.0
    vertex 43.5 3.6999999999999975 3.0
  endloop
endfacet
facet normal -0.0 -0.0 1.0
  outer loop
    vertex 43.5 3.6999999999999975 3.0
    vertex 43.5 1.3000000000000018 3.0
    vertex 44.1 1.4607695154586746 3.0
  endloop
endfacet
facet normal -0.0 -0.0 1.0
  outer loop
    vertex 43.5 3.6999999999999975 3.0
    vertex 44.1 1.4607695154586746 3.0
    vertex 44.1 3.5392304845413243 3.0
  endloop
endfacet
facet normal -0.0 -0.0 1.0
  outer loop
    vertex 44.1 3.5392304845413243 3.0
    vertex 44.1 1.4607695154586746 3.0
    vertex 44.53923048454132 1.9000000000000001 3.0
  endloop
endfacet
facet normal -0.0 -0.0 1.0
  outer loop
    vertex 44.1 3.5392304845413243 3.0
    vertex 44.53923048454132 1.9000000000000001 3.0
    vertex 44.53923048454132 3.0999999999999988 3.0
  endloop
endfacet
facet normal -0.0 -0.0 1.0
  outer loop
    vertex 44.53923048454132 3.0999999999999988 3.0
    vertex 44.53923048454132 1.9000000000000001 3.0
    vertex 44.699999999999996 2.4999999999999996 3.0
  endloop
endfacet
facet normal -0.0 -0.0 1.0
  outer loop
    vertex 1.4607695154586695 1.900000000000002 3.0
    vertex 1.46076951545867 3.100000000000002 3.0
    vertex 1.2999999999999963 2.5000000000000013 3.0
  endloop
endfacet
facet normal -0.0 -0.0 1.0
  outer loop
    vertex 1.46076951545867 3.100000000000002 3.0
    vertex 1.4607695154586695 1.900000000000002 3.0
    vertex 1.899999999999996 1.4607695154586755 3.0
  endloop
endfacet
facet normal -0.0 -0.0 1.0
  outer loop
    vertex 1.46076951545867 3.100000000000002 3.0
    vertex 1.899999999999996 1.4607695154586755 3.0
    vertex 1.8999999999999966 3.539230484541328 3.0
  endloop
endfacet
facet normal -0.0 -0.0 1.0
  outer loop
    vertex 1.8999999999999966 3.539230484541328 3.0
    vertex 1.899999999999996 1.4607695154586755 3.0
    vertex 2.4999999999999956 1.3000000000000016 3.0
  endloop
endfacet
facet normal -0.0 -0.0 1.0
  outer loop
    vertex 1.8999999999999966 3.539230484541328 3.0
    vertex 2.4999999999999956 1.3000000000000016 3.0
    vertex 2.499999999999996 3.7000000000000015 3.0
  endloop
endfacet
facet normal -0.0 -0.0 1.0
  outer loop
    vertex 2.499999999999996 3.7000000000000015 3.0
    vertex 2.4999999999999956 1.3000000000000016 3.0
    vertex 3.099999999999995 1.4607695154586746 3.0
  endloop
endfacet
facet normal -0.0 -0.0 1.0
  outer loop
    vertex 2.499999999999996 3.7000000000000015 3.0
    vertex 3.099999999999995 1.4607695154586746 3.0
    vertex 3.0999999999999965 3.5392304845413274 3.0
  endloop
endfacet
facet normal -0.0 -0.0 1.0
  outer loop
    vertex 3.0999999999999965 3.5392304845413274 3.0
    vertex 3.099999999999995 1.4607695154586746 3.0
    vertex 3.5392304845413225 1.9000000000000008 3.0
  endloop
endfacet
facet normal -0.0 -0.0 1.0
  outer loop
    vertex 3.0999999999999965 3.5392304845413274 3.0
    vertex 3.5392304845413225 1.9000000000000008 3.0
    vertex 3.5392304845413225 3.1000000000000014 3.0
  endloop
endfacet
facet normal -0.0 -0.0 1.0
  outer loop
    vertex 3.5392304845413225 3.1000000000000014 3.0
    vertex 3.5392304845413225 1.9000000000000008 3.0
    vertex 3.699999999999996 2.5000000000000013 3.0
  endloop
endfacet
facet normal -0.0 -0.0 1.0
  outer loop
    vertex 1.4774470427120912e-31 16.0 7.999999999999999
    vertex 1.460769515458674 17.900000000000002 7.999999999999999
    vertex 1.3000000000000005 18.5 7.999999999999999
  endloop
endfacet
facet normal -0.0 -0.0 1.0
  outer loop
    vertex 1.460769515458674 17.900000000000002 7.999999999999999
    vertex 1.4774470427120912e-31 16.0 7.999999999999999
    vertex 1.9000000000000001 17.460769515458676 7.999999999999999
  endloop
endfacet
facet normal -0.0 -0.0 1.0
  outer loop
    vertex 1.9000000000000001 17.460769515458676 7.999999999999999
    vertex 1.4774470427120912e-31 16.0 7.999999999999999
    vertex 5.0 16.0 7.999999999999999
  endloop
endfacet
facet normal -0.0 -0.0 1.0
  outer loop
    vertex 1.9000000000000001 17.460769515458676 7.999999999999999
    vertex 5.0 16.0 7.999999999999999
    vertex 2.5 17.3 7.999999999999999
  endloop
endfacet
facet normal -0.0 -0.0 1.0
  outer loop
    vertex 2.5 17.3 7.999999999999999
    vertex 5.0 16.0 7.999999999999999
    vertex 3.099999999999999 17.460769515458672 7.999999999999999
  endloop
endfacet
facet normal -0.0 -0.0 1.0
  outer loop
    vertex 3.099999999999999 17.460769515458672 7.999999999999999
    vertex 5.0 16.0 7.999999999999999
    vertex 3.5392304845413265 17.9 7.999999999999999
  endloop
endfacet
facet normal -0.0 -0.0 1.0
  outer loop
    vertex 3.5392304845413265 17.9 7.999999999999999
    vertex 5.0 16.0 7.999999999999999
    vertex 3.7 18.5 7.999999999999999
  endloop
endfacet
facet normal -0.0 -0.0 1.0
  outer loop
    vertex 3.68640018092287e-32 21.0 7.999999999999999
    vertex 1.9000000000000008 19.539230484541328 7.999999999999999
    vertex 5.000000000000002 21.0 7.999999999999999
  endloop
endfacet
facet normal -0.0 -0.0 1.0
  outer loop
    vertex 1.9000000000000008 19.539230484541328 7.999999999999999
    vertex 3.68640018092287e-32 21.0 7.999999999999999
    vertex 1.4607695154586742 19.1 7.999999999999999
  endloop
endfacet
facet normal -0.0 -0.0 1.0
  outer loop
    vertex 1.4607695154586742 19.1 7.999999999999999
    vertex 3.68640018092287e-32 21.0 7.999999999999999
    vertex 1.4774470427120912e-31 16.0 7.999999999999999
  endloop
endfacet
facet normal -0.0 -0.0 1.0
  outer loop
    vertex 1.4607695154586742 19.1 7.999999999999999
    vertex 1.4774470427120912e-31 16.0 7.999999999999999
    vertex 1.3000000000000005 18.5 7.999999999999999
  endloop
endfacet
facet normal -0.0 -0.0 1.0
  outer loop
    vertex 5.000000000000002 21.0 7.999999999999999
    vertex 1.9000000000000008 19.539230484541328 7.999999999999999
    vertex 2.5000000000000004 19.7 7.999999999999999
  endloop
endfacet
facet normal -0.0 -0.0 1.0
  outer loop
    vertex 5.000000000000002 21.0 7.999999999999999
    vertex 2.5000000000000004 19.7 7.999999999999999
    vertex 3.1000000000000005 19.539230484541324 7.999999999999999
  endloop
endfacet
facet normal -0.0 -0.0 1.0
  outer loop
    vertex 5.000000000000002 21.0 7.999999999999999
    vertex 3.1000000000000005 19.539230484541324 7.999999999999999
    vertex 3.5392304845413265 19.099999999999998 7.999999999999999
  endloop
endfacet
facet normal -0.0 -0.0 1.0
  outer loop
    vertex 5.000000000000002 21.0 7.999999999999999
    vertex 3.5392304845413265 19.099999999999998 7.999999999999999
    vertex 3.7 18.5 7.999999999999999
  endloop
endfacet
facet normal -0.0 -0.0 1.0
  outer loop
    vertex 5.000000000000002 21.0 7.999999999999999
    vertex 3.7 18.5 7.999999999999999
    vertex 5.0 16.0 7.999999999999999
  endloop
endfacet
facet normal 1.0 -4.2299497238218465e-16 -0.0
  outer loop
    vertex 5.000000000000002 21.0 3.0
    vertex 5.0 16.0 7.999999999999999
    vertex 5.0 16.0 3.0
  endloop
endfacet
facet normal 1.0 -4.2299497238218465e-16 -0.0
  outer loop
    vertex 5.0 16.0 7.999999999999999
    vertex 5.000000000000002 21.0 3.0
    vertex 5.000000000000002 21.0 7.999999999999999
  endloop
endfacet
facet normal 0.0 -1.0 0.0
  outer loop
    vertex 5.0 16.0 7.999999999999999
    vertex 0.0 16.0 3.0
    vertex 5.0 16.0 3.0
  endloop
endfacet
facet normal 0.0 -1.0 0.0
  outer loop
    vertex 0.0 16.0 3.0
    vertex 5.0 16.0 7.999999999999999
    vertex 1.4774470427120912e-31 16.0 7.999999999999999
  endloop
endfacet
facet normal 0.2588190451025242 0.9659258262890674 -7.647828655685831e-33
  outer loop
    vertex 1.9000000000000001 17.460769515458676 7.999999999999999
    vertex 2.5 17.3 3.0
    vertex 1.9000000000000001 17.460769515458676 3.0
  endloop
endfacet
facet normal 0.2588190451025242 0.9659258262890674 -7.647828655685831e-33
  outer loop
    vertex 2.5 17.3 3.0
    vertex 1.9000000000000001 17.460769515458676 7.999999999999999
    vertex 2.5 17.3 7.999999999999999
  endloop
endfacet
facet normal -0.25881904510252024 0.9659258262890684 7.647828655685719e-33
  outer loop
    vertex 2.5 17.3 7.999999999999999
    vertex 3.099999999999999 17.460769515458672 3.0
    vertex 2.5 17.3 3.0
  endloop
endfacet
facet normal -0.25881904510252024 0.9659258262890684 7.647828655685719e-33
  outer loop
    vertex 3.099999999999999 17.460769515458672 3.0
    vertex 2.5 17.3 7.999999999999999
    vertex 3.099999999999999 17.460769515458672 7.999999999999999
  endloop
endfacet
facet normal -0.7071067811865465 0.7071067811865487 2.089425645491458e-32
  outer loop
    vertex 3.099999999999999 17.460769515458672 7.999999999999999
    vertex 3.5392304845413265 17.9 3.0
    vertex 3.099999999999999 17.460769515458672 3.0
  endloop
endfacet
facet normal -0.7071067811865465 0.7071067811865487 2.089425645491458e-32
  outer loop
    vertex 3.5392304845413265 17.9 3.0
    vertex 3.099999999999999 17.460769515458672 7.999999999999999
    vertex 3.5392304845413265 17.9 7.999999999999999
  endloop
endfacet
facet normal -0.9659258262890684 0.2588190451025203 2.854208511060034e-32
  outer loop
    vertex 3.7 18.5 7.999999999999999
    vertex 3.5392304845413265 17.9 3.0
    vertex 3.5392304845413265 17.9 7.999999999999999
  endloop
endfacet
facet normal -0.9659258262890684 0.2588190451025203 2.854208511060034e-32
  outer loop
    vertex 3.5392304845413265 17.9 3.0
    vertex 3.7 18.5 7.999999999999999
    vertex 3.7 18.5 3.0
  endloop
endfacet
facet normal -0.9659258262890682 -0.25881904510252146 2.8542085110600336e-32
  outer loop
    vertex 3.5392304845413265 19.099999999999998 7.999999999999999
    vertex 3.7 18.5 3.0
    vertex 3.7 18.5 7.999999999999999
  endloop
endfacet
facet normal -0.9659258262890682 -0.25881904510252146 2.8542085110600336e-32
  outer loop
    vertex 3.7 18.5 3.0
    vertex 3.5392304845413265 19.099999999999998 7.999999999999999
    vertex 3.5392304845413265 19.099999999999998 3.0
  endloop
endfacet
facet normal -0.7071067811865476 -0.7071067811865476 2.0894256454914612e-32
  outer loop
    vertex 3.1000000000000005 19.539230484541324 7.999999999999999
    vertex 3.5392304845413265 19.099999999999998 3.0
    vertex 3.5392304845413265 19.099999999999998 7.999999999999999
  endloop
endfacet
facet normal -0.7071067811865476 -0.7071067811865476 2.0894256454914612e-32
  outer loop
    vertex 3.5392304845413265 19.099999999999998 3.0
    vertex 3.1000000000000005 19.539230484541324 7.999999999999999
    vertex 3.1000000000000005 19.539230484541324 3.0
  endloop
endfacet
facet normal -0.258819045102524 -0.9659258262890675 7.647828655685827e-33
  outer loop
    vertex 3.1000000000000005 19.539230484541324 7.999999999999999
    vertex 2.5000000000000004 19.7 3.0
    vertex 3.1000000000000005 19.539230484541324 3.0
  endloop
endfacet
facet normal -0.258819045102524 -0.9659258262890675 7.647828655685827e-33
  outer loop
    vertex 2.5000000000000004 19.7 3.0
    vertex 3.1000000000000005 19.539230484541324 7.999999999999999
    vertex 2.5000000000000004 19.7 7.999999999999999
  endloop
endfacet
facet normal 0.2588190451025201 -0.9659258262890685 -7.647828655685715e-33
  outer loop
    vertex 2.5000000000000004 19.7 7.999999999999999
    vertex 1.9000000000000008 19.539230484541328 3.0
    vertex 2.5000000000000004 19.7 3.0
  endloop
endfacet
facet normal 0.2588190451025201 -0.9659258262890685 -7.647828655685715e-33
  outer loop
    vertex 1.9000000000000008 19.539230484541328 3.0
    vertex 2.5000000000000004 19.7 7.999999999999999
    vertex 1.9000000000000008 19.539230484541328 7.999999999999999
  endloop
endfacet
facet normal 0.7071067811865469 -0.7071067811865481 -2.089425645491459e-32
  outer loop
    vertex 1.9000000000000008 19.539230484541328 7.999999999999999
    vertex 1.4607695154586742 19.1 3.0
    vertex 1.9000000000000008 19.539230484541328 3.0
  endloop
endfacet
facet normal 0.7071067811865469 -0.7071067811865481 -2.089425645491459e-32
  outer loop
    vertex 1.4607695154586742 19.1 3.0
    vertex 1.9000000000000008 19.539230484541328 7.999999999999999
    vertex 1.4607695154586742 19.1 7.999999999999999
  endloop
endfacet
facet normal 0.9659258262890684 -0.2588190451025203 -2.854208511060034e-32
  outer loop
    vertex 1.4607695154586742 19.1 3.0
    vertex 1.3000000000000005 18.5 7.999999999999999
    vertex 1.3000000000000005 18.5 3.0
  endloop
endfacet
facet normal 0.9659258262890684 -0.2588190451025203 -2.854208511060034e-32
  outer loop
    vertex 1.3000000000000005 18.5 7.999999999999999
    vertex 1.4607695154586742 19.1 3.0
    vertex 1.4607695154586742 19.1 7.999999999999999
  endloop
endfacet
facet normal 0.9659258262890684 0.2588190451025209 -2.854208511060034e-32
  outer loop
    vertex 1.3000000000000005 18.5 3.0
    vertex 1.460769515458674 17.900000000000002 7.999999999999999
    vertex 1.460769515458674 17.900000000000002 3.0
  endloop
endfacet
facet normal 0.9659258262890684 0.2588190451025209 -2.854208511060034e-32
  outer loop
    vertex 1.460769515458674 17.900000000000002 7.999999999999999
    vertex 1.3000000000000005 18.5 3.0
    vertex 1.3000000000000005 18.5 7.999999999999999
  endloop
endfacet
facet normal 0.7071067811865472 0.7071067811865478 -2.0894256454914595e-32
  outer loop
    vertex 1.460769515458674 17.900000000000002 7.999999999999999
    vertex 1.9000000000000001 17.460769515458676 3.0
    vertex 1.460769515458674 17.900000000000002 3.0
  endloop
endfacet
facet normal 0.7071067811865472 0.7071067811865478 -2.0894256454914595e-32
  outer loop
    vertex 1.9000000000000001 17.460769515458676 3.0
    vertex 1.460769515458674 17.900000000000002 7.999999999999999
    vertex 1.9000000000000001 17.460769515458676 7.999999999999999
  endloop
endfacet
facet normal -0.0 -0.0 1.0
  outer loop
    vertex 41.0 16.0 7.999999999999999
    vertex 42.46076951545867 17.900000000000002 7.999999999999999
    vertex 41.0 21.0 7.999999999999999
  endloop
endfacet
facet normal -0.0 -0.0 1.0
  outer loop
    vertex 42.46076951545867 17.900000000000002 7.999999999999999
    vertex 41.0 16.0 7.999999999999999
    vertex 42.9 17.460769515458676 7.999999999999999
  endloop
endfacet
facet normal -0.0 -0.0 1.0
  outer loop
    vertex 42.9 17.460769515458676 7.999999999999999
    vertex 41.0 16.0 7.999999999999999
    vertex 46.0 16.0 7.999999999999999
  endloop
endfacet
facet normal -0.0 -0.0 1.0
  outer loop
    vertex 41.0 21.0 7.999999999999999
    vertex 42.46076951545867 17.900000000000002 7.999999999999999
    vertex 42.300000000000004 18.5 7.999999999999999
  endloop
endfacet
facet normal -0.0 -0.0 1.0
  outer loop
    vertex 42.9 17.460769515458676 7.999999999999999
    vertex 46.0 16.0 7.999999999999999
    vertex 43.5 17.3 7.999999999999999
  endloop
endfacet
facet normal -0.0 -0.0 1.0
  outer loop
    vertex 43.5 17.3 7.999999999999999
    vertex 46.0 16.0 7.999999999999999
    vertex 44.1 17.460769515458676 7.999999999999999
  endloop
endfacet
facet normal -0.0 -0.0 1.0
  outer loop
    vertex 44.1 17.460769515458676 7.999999999999999
    vertex 46.0 16.0 7.999999999999999
    vertex 44.53923048454132 17.900000000000002 7.999999999999999
  endloop
endfacet
facet normal -0.0 -0.0 1.0
  outer loop
    vertex 44.53923048454132 17.900000000000002 7.999999999999999
    vertex 46.0 16.0 7.999999999999999
    vertex 44.699999999999996 18.5 7.999999999999999
  endloop
endfacet
facet normal -0.0 -0.0 1.0
  outer loop
    vertex 41.0 21.0 7.999999999999999
    vertex 42.9 19.539230484541324 7.999999999999999
    vertex 46.0 21.0 7.999999999999999
  endloop
endfacet
facet normal -0.0 -0.0 1.0
  outer loop
    vertex 42.9 19.539230484541324 7.999999999999999
    vertex 41.0 21.0 7.999999999999999
    vertex 42.46076951545867 19.099999999999998 7.999999999999999
  endloop
endfacet
facet normal -0.0 -0.0 1.0
  outer loop
    vertex 42.46076951545867 19.099999999999998 7.999999999999999
    vertex 41.0 21.0 7.999999999999999
    vertex 42.300000000000004 18.5 7.999999999999999
  endloop
endfacet
facet normal -0.0 -0.0 1.0
  outer loop
    vertex 46.0 21.0 7.999999999999999
    vertex 42.9 19.539230484541324 7.999999999999999
    vertex 43.5 19.7 7.999999999999999
  endloop
endfacet
facet normal -0.0 -0.0 1.0
  outer loop
    vertex 46.0 21.0 7.999999999999999
    vertex 43.5 19.7 7.999999999999999
    vertex 44.1 19.539230484541324 7.999999999999999
  endloop
endfacet
facet normal -0.0 -0.0 1.0
  outer loop
    vertex 46.0 21.0 7.999999999999999
    vertex 44.1 19.539230484541324 7.999999999999999
    vertex 44.53923048454132 19.099999999999998 7.999999999999999
  endloop
endfacet
facet normal -0.0 -0.0 1.0
  outer loop
    vertex 46.0 21.0 7.999999999999999
    vertex 44.53923048454132 19.099999999999998 7.999999999999999
    vertex 44.699999999999996 18.5 7.999999999999999
  endloop
endfacet
facet normal -0.0 -0.0 1.0
  outer loop
    vertex 46.0 21.0 7.999999999999999
    vertex 44.699999999999996 18.5 7.999999999999999
    vertex 46.0 16.0 7.999999999999999
  endloop
endfacet
facet normal -1.0 0.0 0.0
  outer loop
    vertex 41.0 21.0 7.999999999999999
    vertex 41.0 16.0 3.0
    vertex 41.0 16.0 7.999999999999999
  endloop
endfacet
facet normal -1.0 0.0 0.0
  outer loop
    vertex 41.0 16.0 3.0
    vertex 41.0 21.0 7.999999999999999
    vertex 41.0 21.0 3.0
  endloop
endfacet
facet normal 0.0 -1.0 0.0
  outer loop
    vertex 46.0 16.0 7.999999999999999
    vertex 41.0 16.0 3.0
    vertex 46.0 16.0 3.0
  endloop
endfacet
facet normal 0.0 -1.0 0.0
  outer loop
    vertex 41.0 16.0 3.0
    vertex 46.0 16.0 7.999999999999999
    vertex 41.0 16.0 7.999999999999999
  endloop
endfacet
facet normal -0.25881904510252035 -0.9659258262890684 -0.0
  outer loop
    vertex 44.1 19.539230484541324 7.999999999999999
    vertex 43.5 19.7 3.0
    vertex 44.1 19.539230484541324 3.0
  endloop
endfacet
facet normal -0.25881904510252035 -0.9659258262890684 -0.0
  outer loop
    vertex 43.5 19.7 3.0
    vertex 44.1 19.539230484541324 7.999999999999999
    vertex 43.5 19.7 7.999999999999999
  endloop
endfacet
facet normal 0.25881904510252035 -0.9659258262890684 0.0
  outer loop
    vertex 43.5 19.7 7.999999999999999
    vertex 42.9 19.539230484541324 3.0
    vertex 43.5 19.7 3.0
  endloop
endfacet
facet normal 0.25881904510252035 -0.9659258262890684 0.0
  outer loop
    vertex 42.9 19.539230484541324 3.0
    vertex 43.5 19.7 7.999999999999999
    vertex 42.9 19.539230484541324 7.999999999999999
  endloop
endfacet
facet normal 0.7071067811865476 -0.7071067811865476 0.0
  outer loop
    vertex 42.9 19.539230484541324 3.0
    vertex 42.46076951545867 19.099999999999998 7.999999999999999
    vertex 42.46076951545867 19.099999999999998 3.0
  endloop
endfacet
facet normal 0.7071067811865476 -0.7071067811865476 0.0
  outer loop
    vertex 42.46076951545867 19.099999999999998 7.999999999999999
    vertex 42.9 19.539230484541324 3.0
    vertex 42.9 19.539230484541324 7.999999999999999
  endloop
endfacet
facet normal 0.9659258262890684 -0.25881904510252035 0.0
  outer loop
    vertex 42.46076951545867 19.099999999999998 3.0
    vertex 42.300000000000004 18.5 7.999999999999999
    vertex 42.300000000000004 18.5 3.0
  endloop
endfacet
facet normal 0.9659258262890684 -0.25881904510252035 0.0
  outer loop
    vertex 42.300000000000004 18.5 7.999999999999999
    vertex 42.46076951545867 19.099999999999998 3.0
    vertex 42.46076951545867 19.099999999999998 7.999999999999999
  endloop
endfacet
facet normal 0.9659258262890684 0.25881904510252035 0.0
  outer loop
    vertex 42.300000000000004 18.5 3.0
    vertex 42.46076951545867 17.900000000000002 7.999999999999999
    vertex 42.46076951545867 17.900000000000002 3.0
  endloop
endfacet
facet normal 0.9659258262890684 0.25881904510252035 0.0
  outer loop
    vertex 42.46076951545867 17.900000000000002 7.999999999999999
    vertex 42.300000000000004 18.5 3.0
    vertex 42.300000000000004 18.5 7.999999999999999
  endloop
endfacet
facet normal 0.7071067811865476 0.7071067811865476 0.0
  outer loop
    vertex 42.46076951545867 17.900000000000002 3.0
    vertex 42.9 17.460769515458676 7.999999999999999
    vertex 42.9 17.460769515458676 3.0
  endloop
endfacet
facet normal 0.7071067811865476 0.7071067811865476 0.0
  outer loop
    vertex 42.9 17.460769515458676 7.999999999999999
    vertex 42.46076951545867 17.900000000000002 3.0
    vertex 42.46076951545867 17.900000000000002 7.999999999999999
  endloop
endfacet
facet normal 0.25881904510252035 0.9659258262890684 0.0
  outer loop
    vertex 42.9 17.460769515458676 7.999999999999999
    vertex 43.5 17.3 3.0
    vertex 42.9 17.460769515458676 3.0
  endloop
endfacet
facet normal 0.25881904510252035 0.9659258262890684 0.0
  outer loop
    vertex 43.5 17.3 3.0
    vertex 42.9 17.460769515458676 7.999999999999999
    vertex 43.5 17.3 7.999999999999999
  endloop
endfacet
facet normal -0.25881904510252035 0.9659258262890684 0.0
  outer loop
    vertex 43.5 17.3 7.999999999999999
    vertex 44.1 17.460769515458676 3.0
    vertex 43.5 17.3 3.0
  endloop
endfacet
facet normal -0.25881904510252035 0.9659258262890684 0.0
  outer loop
    vertex 44.1 17.460769515458676 3.0
    vertex 43.5 17.3 7.999999999999999
    vertex 44.1 17.460769515458676 7.999999999999999
  endloop
endfacet
facet normal -0.7071067811865476 0.7071067811865476 0.0
  outer loop
    vertex 44.53923048454132 17.900000000000002 7.999999999999999
    vertex 44.1 17.460769515458676 3.0
    vertex 44.1 17.460769515458676 7.999999999999999
  endloop
endfacet
facet normal -0.7071067811865476 0.7071067811865476 0.0
  outer loop
    vertex 44.1 17.460769515458676 3.0
    vertex 44.53923048454132 17.900000000000002 7.999999999999999
    vertex 44.53923048454132 17.900000000000002 3.0
  endloop
endfacet
facet normal -0.9659258262890684 0.25881904510252035 0.0
  outer loop
    vertex 44.699999999999996 18.5 7.999999999999999
    vertex 44.53923048454132 17.900000000000002 3.0
    vertex 44.53923048454132 17.900000000000002 7.999999999999999
  endloop
endfacet
facet normal -0.9659258262890684 0.25881904510252035 0.0
  outer loop
    vertex 44.53923048454132 17.900000000000002 3.0
    vertex 44.699999999999996 18.5 7.999999999999999
    vertex 44.699999999999996 18.5 3.0
  endloop
endfacet
facet normal -0.9659258262890684 -0.25881904510252035 -0.0
  outer loop
    vertex 44.53923048454132 19.099999999999998 7.999999999999999
    vertex 44.699999999999996 18.5 3.0
    vertex 44.699999999999996 18.5 7.999999999999999
  endloop
endfacet
facet normal -0.9659258262890684 -0.25881904510252035 -0.0
  outer loop
    vertex 44.699999999999996 18.5 3.0
    vertex 44.53923048454132 19.099999999999998 7.999999999999999
    vertex 44.53923048454132 19.099999999999998 3.0
  endloop
endfacet
facet normal -0.7071067811865476 -0.7071067811865476 -0.0
  outer loop
    vertex 44.1 19.539230484541324 7.999999999999999
    vertex 44.53923048454132 19.099999999999998 3.0
    vertex 44.53923048454132 19.099999999999998 7.999999999999999
  endloop
endfacet
facet normal -0.7071067811865476 -0.7071067811865476 -0.0
  outer loop
    vertex 44.53923048454132 19.099999999999998 3.0
    vertex 44.1 19.539230484541324 7.999999999999999
    vertex 44.1 19.539230484541324 3.0
  endloop
endfacet
facet normal -0.0 -0.0 1.0
  outer loop
    vertex 3.68640018092287e-32 1.2241270199527586e-31 7.999999999999999
    vertex 1.4607695154586695 1.900000000000002 7.999999999999999
    vertex 2.216170564068142e-31 5.0 7.999999999999999
  endloop
endfacet
facet normal -0.0 -0.0 1.0
  outer loop
    vertex 1.4607695154586695 1.900000000000002 7.999999999999999
    vertex 3.68640018092287e-32 1.2241270199527586e-31 7.999999999999999
    vertex 1.899999999999996 1.4607695154586755 7.999999999999999
  endloop
endfacet
facet normal -0.0 -0.0 1.0
  outer loop
    vertex 1.899999999999996 1.4607695154586755 7.999999999999999
    vertex 3.68640018092287e-32 1.2241270199527586e-31 7.999999999999999
    vertex 4.999999999999992 2.8199664825478975e-15 7.999999999999999
  endloop
endfacet
facet normal -0.0 -0.0 1.0
  outer loop
    vertex 2.216170564068142e-31 5.0 7.999999999999999
    vertex 1.4607695154586695 1.900000000000002 7.999999999999999
    vertex 1.2999999999999963 2.5000000000000013 7.999999999999999
  endloop
endfacet
facet normal -0.0 -0.0 1.0
  outer loop
    vertex 1.899999999999996 1.4607695154586755 7.999999999999999
    vertex 4.999999999999992 2.8199664825478975e-15 7.999999999999999
    vertex 2.4999999999999956 1.3000000000000016 7.999999999999999
  endloop
endfacet
facet normal -0.0 -0.0 1.0
  outer loop
    vertex 2.4999999999999956 1.3000000000000016 7.999999999999999
    vertex 4.999999999999992 2.8199664825478975e-15 7.999999999999999
    vertex 3.099999999999995 1.4607695154586746 7.999999999999999
  endloop
endfacet
facet normal -0.0 -0.0 1.0
  outer loop
    vertex 3.099999999999995 1.4607695154586746 7.999999999999999
    vertex 4.999999999999992 2.8199664825478975e-15 7.999999999999999
    vertex 3.5392304845413225 1.9000000000000008 7.999999999999999
  endloop
endfacet
facet normal -0.0 -0.0 1.0
  outer loop
    vertex 3.5392304845413225 1.9000000000000008 7.999999999999999
    vertex 4.999999999999992 2.8199664825478975e-15 7.999999999999999
    vertex 3.699999999999996 2.5000000000000013 7.999999999999999
  endloop
endfacet
facet normal -0.0 -0.0 1.0
  outer loop
    vertex 2.216170564068142e-31 5.0 7.999999999999999
    vertex 1.8999999999999966 3.539230484541328 7.999999999999999
    vertex 4.999999999999995 4.999999999999999 7.999999999999999
  endloop
endfacet
facet normal -0.0 -0.0 1.0
  outer loop
    vertex 1.8999999999999966 3.539230484541328 7.999999999999999
    vertex 2.216170564068142e-31 5.0 7.999999999999999
    vertex 1.46076951545867 3.100000000000002 7.999999999999999
  endloop
endfacet
facet normal -0.0 -0.0 1.0
  outer loop
    vertex 1.46076951545867 3.100000000000002 7.999999999999999
    vertex 2.216170564068142e-31 5.0 7.999999999999999
    vertex 1.2999999999999963 2.5000000000000013 7.999999999999999
  endloop
endfacet
facet normal -0.0 -0.0 1.0
  outer loop
    vertex 4.999999999999995 4.999999999999999 7.999999999999999
    vertex 1.8999999999999966 3.539230484541328 7.999999999999999
    vertex 2.499999999999996 3.7000000000000015 7.999999999999999
  endloop
endfacet
facet normal -0.0 -0.0 1.0
  outer loop
    vertex 4.999999999999995 4.999999999999999 7.999999999999999
    vertex 2.499999999999996 3.7000000000000015 7.999999999999999
    vertex 3.0999999999999965 3.5392304845413274 7.999999999999999
  endloop
endfacet
facet normal -0.0 -0.0 1.0
  outer loop
    vertex 4.999999999999995 4.999999999999999 7.999999999999999
    vertex 3.0999999999999965 3.5392304845413274 7.999999999999999
    vertex 3.5392304845413225 3.1000000000000014 7.999999999999999
  endloop
endfacet
facet normal -0.0 -0.0 1.0
  outer loop
    vertex 4.999999999999995 4.999999999999999 7.999999999999999
    vertex 3.5392304845413225 3.1000000000000014 7.999999999999999
    vertex 3.699999999999996 2.5000000000000013 7.999999999999999
  endloop
endfacet
facet normal -0.0 -0.0 1.0
  outer loop
    vertex 4.999999999999995 4.999999999999999 7.999999999999999
    vertex 3.699999999999996 2.5000000000000013 7.999999999999999
    vertex 4.999999999999992 2.8199664825478975e-15 7.999999999999999
  endloop
endfacet
facet normal 1.0 -4.229949723821849e-16 -0.0
  outer loop
    vertex 4.999999999999995 4.999999999999999 3.0
    vertex 4.999999999999992 2.8199664825478975e-15 7.999999999999999
    vertex 4.999999999999992 2.8199664825478975e-15 3.0
  endloop
endfacet
facet normal 1.0 -4.229949723821849e-16 -0.0
  outer loop
    vertex 4.999999999999992 2.8199664825478975e-15 7.999999999999999
    vertex 4.999999999999995 4.999999999999999 3.0
    vertex 4.999999999999995 4.999999999999999 7.999999999999999
  endloop
endfacet
facet normal 1.4099832412739503e-16 1.0 -0.0
  outer loop
    vertex 2.216170564068142e-31 5.0 7.999999999999999
    vertex 4.999999999999995 4.999999999999999 3.0
    vertex 0.0 5.0 3.0
  endloop
endfacet
facet normal 1.4099832412739503e-16 1.0 -0.0
  outer loop
    vertex 4.999999999999995 4.999999999999999 3.0
    vertex 2.216170564068142e-31 5.0 7.999999999999999
    vertex 4.999999999999995 4.999999999999999 7.999999999999999
  endloop
endfacet
facet normal 0.2588190451025213 0.9659258262890683 -2.9538291291863237e-32
  outer loop
    vertex 1.899999999999996 1.4607695154586755 7.999999999999999
    vertex 2.4999999999999956 1.3000000000000016 3.0
    vertex 1.899999999999996 1.4607695154586755 3.0
  endloop
endfacet
facet normal 0.2588190451025213 0.9659258262890683 -2.9538291291863237e-32
  outer loop
    vertex 2.4999999999999956 1.3000000000000016 3.0
    vertex 1.899999999999996 1.4607695154586755 7.999999999999999
    vertex 2.4999999999999956 1.3000000000000016 7.999999999999999
  endloop
endfacet
facet normal -0.25881904510252024 0.9659258262890684 -6.594805324805986e-33
  outer loop
    vertex 2.4999999999999956 1.3000000000000016 7.999999999999999
    vertex 3.099999999999995 1.4607695154586746 3.0
    vertex 2.4999999999999956 1.3000000000000016 3.0
  endloop
endfacet
facet normal -0.25881904510252024 0.9659258262890684 -6.594805324805986e-33
  outer loop
    vertex 3.099999999999995 1.4607695154586746 3.0
    vertex 2.4999999999999956 1.3000000000000016 7.999999999999999
    vertex 3.099999999999995 1.4607695154586746 7.999999999999999
  endloop
endfacet
facet normal -0.7071067811865467 0.7071067811865483 1.8115753403273464e-32
  outer loop
    vertex 3.099999999999995 1.4607695154586746 7.999999999999999
    vertex 3.5392304845413225 1.9000000000000008 3.0
    vertex 3.099999999999995 1.4607695154586746 3.0
  endloop
endfacet
facet normal -0.7071067811865467 0.7071067811865483 1.8115753403273464e-32
  outer loop
    vertex 3.5392304845413225 1.9000000000000008 3.0
    vertex 3.099999999999995 1.4607695154586746 7.999999999999999
    vertex 3.5392304845413225 1.9000000000000008 7.999999999999999
  endloop
endfacet
facet normal -0.9659258262890684 0.25881904510252074 3.79722106366645e-32
  outer loop
    vertex 3.699999999999996 2.5000000000000013 7.999999999999999
    vertex 3.5392304845413225 1.9000000000000008 3.0
    vertex 3.5392304845413225 1.9000000000000008 7.999999999999999
  endloop
endfacet
facet normal -0.9659258262890684 0.25881904510252074 3.79722106366645e-32
  outer loop
    vertex 3.5392304845413225 1.9000000000000008 3.0
    vertex 3.699999999999996 2.5000000000000013 7.999999999999999
    vertex 3.699999999999996 2.5000000000000013 3.0
  endloop
endfacet
facet normal -0.9659258262890683 -0.258819045102521 4.765404469513673e-32
  outer loop
    vertex 3.5392304845413225 3.1000000000000014 7.999999999999999
    vertex 3.699999999999996 2.5000000000000013 3.0
    vertex 3.699999999999996 2.5000000000000013 7.999999999999999
  endloop
endfacet
facet normal -0.9659258262890683 -0.258819045102521 4.765404469513673e-32
  outer loop
    vertex 3.699999999999996 2.5000000000000013 3.0
    vertex 3.5392304845413225 3.1000000000000014 7.999999999999999
    vertex 3.5392304845413225 3.1000000000000014 3.0
  endloop
endfacet
facet normal -0.7071067811865476 -0.7071067811865476 4.456701596147045e-32
  outer loop
    vertex 3.0999999999999965 3.5392304845413274 7.999999999999999
    vertex 3.5392304845413225 3.1000000000000014 3.0
    vertex 3.5392304845413225 3.1000000000000014 7.999999999999999
  endloop
endfacet
facet normal -0.7071067811865476 -0.7071067811865476 4.456701596147045e-32
  outer loop
    vertex 3.5392304845413225 3.1000000000000014 3.0
    vertex 3.0999999999999965 3.5392304845413274 7.999999999999999
    vertex 3.0999999999999965 3.5392304845413274 3.0
  endloop
endfacet
facet normal -0.2588190451025219 -0.9659258262890681 2.9538291291863253e-32
  outer loop
    vertex 3.0999999999999965 3.5392304845413274 7.999999999999999
    vertex 2.499999999999996 3.7000000000000015 3.0
    vertex 3.0999999999999965 3.5392304845413274 3.0
  endloop
endfacet
facet normal -0.2588190451025219 -0.9659258262890681 2.9538291291863253e-32
  outer loop
    vertex 2.499999999999996 3.7000000000000015 3.0
    vertex 3.0999999999999965 3.5392304845413274 7.999999999999999
    vertex 2.499999999999996 3.7000000000000015 7.999999999999999
  endloop
endfacet
facet normal 0.25881904510252113 -0.9659258262890682 6.594805324805941e-33
  outer loop
    vertex 2.499999999999996 3.7000000000000015 7.999999999999999
    vertex 1.8999999999999966 3.539230484541328 3.0
    vertex 2.499999999999996 3.7000000000000015 3.0
  endloop
endfacet
facet normal 0.25881904510252113 -0.9659258262890682 6.594805324805941e-33
  outer loop
    vertex 1.8999999999999966 3.539230484541328 3.0
    vertex 2.499999999999996 3.7000000000000015 7.999999999999999
    vertex 1.8999999999999966 3.539230484541328 7.999999999999999
  endloop
endfacet
facet normal 0.7071067811865472 -0.7071067811865478 -1.8115753403273502e-32
  outer loop
    vertex 1.8999999999999966 3.539230484541328 7.999999999999999
    vertex 1.46076951545867 3.100000000000002 3.0
    vertex 1.8999999999999966 3.539230484541328 3.0
  endloop
endfacet
facet normal 0.7071067811865472 -0.7071067811865478 -1.8115753403273502e-32
  outer loop
    vertex 1.46076951545867 3.100000000000002 3.0
    vertex 1.8999999999999966 3.539230484541328 7.999999999999999
    vertex 1.46076951545867 3.100000000000002 7.999999999999999
  endloop
endfacet
facet normal 0.9659258262890683 -0.25881904510252085 -3.797221063666449e-32
  outer loop
    vertex 1.46076951545867 3.100000000000002 3.0
    vertex 1.2999999999999963 2.5000000000000013 7.999999999999999
    vertex 1.2999999999999963 2.5000000000000013 3.0
  endloop
endfacet
facet normal 0.9659258262890683 -0.25881904510252085 -3.797221063666449e-32
  outer loop
    vertex 1.2999999999999963 2.5000000000000013 7.999999999999999
    vertex 1.46076951545867 3.100000000000002 3.0
    vertex 1.46076951545867 3.100000000000002 7.999999999999999
  endloop
endfacet
facet normal 0.9659258262890683 0.25881904510252063 -4.7654044695136725e-32
  outer loop
    vertex 1.2999999999999963 2.5000000000000013 3.0
    vertex 1.4607695154586695 1.900000000000002 7.999999999999999
    vertex 1.4607695154586695 1.900000000000002 3.0
  endloop
endfacet
facet normal 0.9659258262890683 0.25881904510252063 -4.7654044695136725e-32
  outer loop
    vertex 1.4607695154586695 1.900000000000002 7.999999999999999
    vertex 1.2999999999999963 2.5000000000000013 3.0
    vertex 1.2999999999999963 2.5000000000000013 7.999999999999999
  endloop
endfacet
facet normal 0.7071067811865477 0.7071067811865474 -4.456701596147045e-32
  outer loop
    vertex 1.4607695154586695 1.900000000000002 3.0
    vertex 1.899999999999996 1.4607695154586755 7.999999999999999
    vertex 1.899999999999996 1.4607695154586755 3.0
  endloop
endfacet
facet normal 0.7071067811865477 0.7071067811865474 -4.456701596147045e-32
  outer loop
    vertex 1.899999999999996 1.4607695154586755 7.999999999999999
    vertex 1.4607695154586695 1.900000000000002 3.0
    vertex 1.4607695154586695 1.900000000000002 7.999999999999999
  endloop
endfacet
facet normal -0.0 -0.0 1.0
  outer loop
    vertex 41.0 2.3379833907308616e-32 7.999999999999999
    vertex 42.46076951545867 1.900000000000001 7.999999999999999
    vertex 42.300000000000004 2.4999999999999996 7.999999999999999
  endloop
endfacet
facet normal -0.0 -0.0 1.0
  outer loop
    vertex 42.46076951545867 1.900000000000001 7.999999999999999
    vertex 41.0 2.3379833907308616e-32 7.999999999999999
    vertex 42.9 1.4607695154586755 7.999999999999999
  endloop
endfacet
facet normal -0.0 -0.0 1.0
  outer loop
    vertex 42.9 1.4607695154586755 7.999999999999999
    vertex 41.0 2.3379833907308616e-32 7.999999999999999
    vertex 46.0 2.3379833907308616e-32 7.999999999999999
  endloop
endfacet
facet normal -0.0 -0.0 1.0
  outer loop
    vertex 42.9 1.4607695154586755 7.999999999999999
    vertex 46.0 2.3379833907308616e-32 7.999999999999999
    vertex 43.5 1.3000000000000018 7.999999999999999
  endloop
endfacet
facet normal -0.0 -0.0 1.0
  outer loop
    vertex 43.5 1.3000000000000018 7.999999999999999
    vertex 46.0 2.3379833907308616e-32 7.999999999999999
    vertex 44.1 1.4607695154586746 7.999999999999999
  endloop
endfacet
facet normal -0.0 -0.0 1.0
  outer loop
    vertex 44.1 1.4607695154586746 7.999999999999999
    vertex 46.0 2.3379833907308616e-32 7.999999999999999
    vertex 44.53923048454132 1.9000000000000001 7.999999999999999
  endloop
endfacet
facet normal -0.0 -0.0 1.0
  outer loop
    vertex 44.53923048454132 1.9000000000000001 7.999999999999999
    vertex 46.0 2.3379833907308616e-32 7.999999999999999
    vertex 44.699999999999996 2.4999999999999996 7.999999999999999
  endloop
endfacet
facet normal -0.0 -0.0 1.0
  outer loop
    vertex 40.99999999999999 4.999999999999999 7.999999999999999
    vertex 42.9 3.5392304845413243 7.999999999999999
    vertex 46.0 5.0 7.999999999999999
  endloop
endfacet
facet normal -0.0 -0.0 1.0
  outer loop
    vertex 42.9 3.5392304845413243 7.999999999999999
    vertex 40.99999999999999 4.999999999999999 7.999999999999999
    vertex 42.46076951545867 3.0999999999999988 7.999999999999999
  endloop
endfacet
facet normal -0.0 -0.0 1.0
  outer loop
    vertex 42.46076951545867 3.0999999999999988 7.999999999999999
    vertex 40.99999999999999 4.999999999999999 7.999999999999999
    vertex 41.0 2.3379833907308616e-32 7.999999999999999
  endloop
endfacet
facet normal -0.0 -0.0 1.0
  outer loop
    vertex 42.46076951545867 3.0999999999999988 7.999999999999999
    vertex 41.0 2.3379833907308616e-32 7.999999999999999
    vertex 42.300000000000004 2.4999999999999996 7.999999999999999
  endloop
endfacet
facet normal -0.0 -0.0 1.0
  outer loop
    vertex 46.0 5.0 7.999999999999999
    vertex 42.9 3.5392304845413243 7.999999999999999
    vertex 43.5 3.6999999999999975 7.999999999999999
  endloop
endfacet
facet normal -0.0 -0.0 1.0
  outer loop
    vertex 46.0 5.0 7.999999999999999
    vertex 43.5 3.6999999999999975 7.999999999999999
    vertex 44.1 3.5392304845413243 7.999999999999999
  endloop
endfacet
facet normal -0.0 -0.0 1.0
  outer loop
    vertex 46.0 5.0 7.999999999999999
    vertex 44.1 3.5392304845413243 7.999999999999999
    vertex 44.53923048454132 3.0999999999999988 7.999999999999999
  endloop
endfacet
facet normal -0.0 -0.0 1.0
  outer loop
    vertex 46.0 5.0 7.999999999999999
    vertex 44.53923048454132 3.0999999999999988 7.999999999999999
    vertex 44.699999999999996 2.4999999999999996 7.999999999999999
  endloop
endfacet
facet normal -0.0 -0.0 1.0
  outer loop
    vertex 46.0 5.0 7.999999999999999
    vertex 44.699999999999996 2.4999999999999996 7.999999999999999
    vertex 46.0 2.3379833907308616e-32 7.999999999999999
  endloop
endfacet
facet normal -1.4099832412739469e-16 1.0 -0.0
  outer loop
    vertex 40.99999999999999 4.999999999999999 7.999999999999999
    vertex 46.0 5.0 3.0
    vertex 40.99999999999999 4.999999999999999 3.0
  endloop
endfacet
facet normal -1.4099832412739469e-16 1.0 -0.0
  outer loop
    vertex 46.0 5.0 3.0
    vertex 40.99999999999999 4.999999999999999 7.999999999999999
    vertex 46.0 5.0 7.999999999999999
  endloop
endfacet
facet normal -1.0 -1.127986593019159e-15 0.0
  outer loop
    vertex 41.0 2.3379833907308616e-32 7.999999999999999
    vertex 40.99999999999999 4.999999999999999 3.0
    vertex 41.0 0.0 3.0
  endloop
endfacet
facet normal -1.0 -1.127986593019159e-15 0.0
  outer loop
    vertex 40.99999999999999 4.999999999999999 3.0
    vertex 41.0 2.3379833907308616e-32 7.999999999999999
    vertex 40.99999999999999 4.999999999999999 7.999999999999999
  endloop
endfacet
facet normal -0.25881904510252035 -0.9659258262890684 4.516637077083651e-33
  outer loop
    vertex 44.1 3.5392304845413243 7.999999999999999
    vertex 43.5 3.6999999999999975 3.0
    vertex 44.1 3.5392304845413243 3.0
  endloop
endfacet
facet normal -0.25881904510252035 -0.9659258262890684 4.516637077083651e-33
  outer loop
    vertex 43.5 3.6999999999999975 3.0
    vertex 44.1 3.5392304845413243 7.999999999999999
    vertex 43.5 3.6999999999999975 7.999999999999999
  endloop
endfacet
facet normal 0.25881904510252035 -0.9659258262890684 4.516637077083651e-33
  outer loop
    vertex 43.5 3.6999999999999975 7.999999999999999
    vertex 42.9 3.5392304845413243 3.0
    vertex 43.5 3.6999999999999975 3.0
  endloop
endfacet
facet normal 0.25881904510252035 -0.9659258262890684 4.516637077083651e-33
  outer loop
    vertex 42.9 3.5392304845413243 3.0
    vertex 43.5 3.6999999999999975 7.999999999999999
    vertex 42.9 3.5392304845413243 7.999999999999999
  endloop
endfacet
facet normal 0.7071067811865472 -0.7071067811865478 3.30640781977462e-33
  outer loop
    vertex 42.9 3.5392304845413243 7.999999999999999
    vertex 42.46076951545867 3.0999999999999988 3.0
    vertex 42.9 3.5392304845413243 3.0
  endloop
endfacet
facet normal 0.7071067811865472 -0.7071067811865478 3.30640781977462e-33
  outer loop
    vertex 42.46076951545867 3.0999999999999988 3.0
    vertex 42.9 3.5392304845413243 7.999999999999999
    vertex 42.46076951545867 3.0999999999999988 7.999999999999999
  endloop
endfacet
facet normal 0.9659258262890684 -0.25881904510252024 1.2102292573090266e-33
  outer loop
    vertex 42.46076951545867 3.0999999999999988 3.0
    vertex 42.300000000000004 2.4999999999999996 7.999999999999999
    vertex 42.300000000000004 2.4999999999999996 3.0
  endloop
endfacet
facet normal 0.9659258262890684 -0.25881904510252024 1.2102292573090266e-33
  outer loop
    vertex 42.300000000000004 2.4999999999999996 7.999999999999999
    vertex 42.46076951545867 3.0999999999999988 3.0
    vertex 42.46076951545867 3.0999999999999988 7.999999999999999
  endloop
endfacet
facet normal 0.9659258262890685 0.2588190451025205 -1.210229257309031e-33
  outer loop
    vertex 42.300000000000004 2.4999999999999996 3.0
    vertex 42.46076951545867 1.900000000000001 7.999999999999999
    vertex 42.46076951545867 1.900000000000001 3.0
  endloop
endfacet
facet normal 0.9659258262890685 0.2588190451025205 -1.210229257309031e-33
  outer loop
    vertex 42.46076951545867 1.900000000000001 7.999999999999999
    vertex 42.300000000000004 2.4999999999999996 3.0
    vertex 42.300000000000004 2.4999999999999996 7.999999999999999
  endloop
endfacet
facet normal 0.7071067811865474 0.7071067811865477 -3.306407819774622e-33
  outer loop
    vertex 42.46076951545867 1.900000000000001 7.999999999999999
    vertex 42.9 1.4607695154586755 3.0
    vertex 42.46076951545867 1.900000000000001 3.0
  endloop
endfacet
facet normal 0.7071067811865474 0.7071067811865477 -3.306407819774622e-33
  outer loop
    vertex 42.9 1.4607695154586755 3.0
    vertex 42.46076951545867 1.900000000000001 7.999999999999999
    vertex 42.9 1.4607695154586755 7.999999999999999
  endloop
endfacet
facet normal 0.2588190451025212 0.9659258262890682 -4.51663707708365e-33
  outer loop
    vertex 42.9 1.4607695154586755 7.999999999999999
    vertex 43.5 1.3000000000000018 3.0
    vertex 42.9 1.4607695154586755 3.0
  endloop
endfacet
facet normal 0.2588190451025212 0.9659258262890682 -4.51663707708365e-33
  outer loop
    vertex 43.5 1.3000000000000018 3.0
    vertex 42.9 1.4607695154586755 7.999999999999999
    vertex 43.5 1.3000000000000018 7.999999999999999
  endloop
endfacet
facet normal -0.25881904510252013 0.9659258262890685 -4.516637077083652e-33
  outer loop
    vertex 43.5 1.3000000000000018 7.999999999999999
    vertex 44.1 1.4607695154586746 3.0
    vertex 43.5 1.3000000000000018 3.0
  endloop
endfacet
facet normal -0.25881904510252013 0.9659258262890685 -4.516637077083652e-33
  outer loop
    vertex 44.1 1.4607695154586746 3.0
    vertex 43.5 1.3000000000000018 7.999999999999999
    vertex 44.1 1.4607695154586746 7.999999999999999
  endloop
endfacet
facet normal -0.7071067811865472 0.707106781186548 -3.3064078197746206e-33
  outer loop
    vertex 44.1 1.4607695154586746 7.999999999999999
    vertex 44.53923048454132 1.9000000000000001 3.0
    vertex 44.1 1.4607695154586746 3.0
  endloop
endfacet
facet normal -0.7071067811865472 0.707106781186548 -3.3064078197746206e-33
  outer loop
    vertex 44.53923048454132 1.9000000000000001 3.0
    vertex 44.1 1.4607695154586746 7.999999999999999
    vertex 44.53923048454132 1.9000000000000001 7.999999999999999
  endloop
endfacet
facet normal -0.9659258262890685 0.2588190451025201 -1.210229257309026e-33
  outer loop
    vertex 44.699999999999996 2.4999999999999996 7.999999999999999
    vertex 44.53923048454132 1.9000000000000001 3.0
    vertex 44.53923048454132 1.9000000000000001 7.999999999999999
  endloop
endfacet
facet normal -0.9659258262890685 0.2588190451025201 -1.210229257309026e-33
  outer loop
    vertex 44.53923048454132 1.9000000000000001 3.0
    vertex 44.699999999999996 2.4999999999999996 7.999999999999999
    vertex 44.699999999999996 2.4999999999999996 3.0
  endloop
endfacet
facet normal -0.9659258262890684 -0.25881904510252035 1.2102292573090302e-33
  outer loop
    vertex 44.53923048454132 3.0999999999999988 7.999999999999999
    vertex 44.699999999999996 2.4999999999999996 3.0
    vertex 44.699999999999996 2.4999999999999996 7.999999999999999
  endloop
endfacet
facet normal -0.9659258262890684 -0.25881904510252035 1.2102292573090302e-33
  outer loop
    vertex 44.699999999999996 2.4999999999999996 3.0
    vertex 44.53923048454132 3.0999999999999988 7.999999999999999
    vertex 44.53923048454132 3.0999999999999988 3.0
  endloop
endfacet
facet normal -0.7071067811865476 -0.7071067811865476 3.306407819774621e-33
  outer loop
    vertex 44.1 3.5392304845413243 7.999999999999999
    vertex 44.53923048454132 3.0999999999999988 3.0
    vertex 44.53923048454132 3.0999999999999988 7.999999999999999
  endloop
endfacet
facet normal -0.7071067811865476 -0.7071067811865476 3.306407819774621e-33
  outer loop
    vertex 44.53923048454132 3.0999999999999988 3.0
    vertex 44.1 3.5392304845413243 7.999999999999999
    vertex 44.1 3.5392304845413243 3.0
  endloop
endfacet
facet normal -0.0 -0.0 1.0
  outer loop
    vertex 4.999999999999995 4.999999999999999 3.0
    vertex 0.0 16.0 3.0
    vertex 0.0 5.0 3.0
  endloop
endfacet
facet normal -0.0 -0.0 1.0
  outer loop
    vertex 0.0 16.0 3.0
    vertex 4.999999999999995 4.999999999999999 3.0
    vertex 5.0 16.0 3.0
  endloop
endfacet
facet normal -0.0 -0.0 1.0
  outer loop
    vertex 41.0 0.0 3.0
    vertex 4.999999999999995 4.999999999999999 3.0
    vertex 4.999999999999992 2.8199664825478975e-15 3.0
  endloop
endfacet
facet normal -0.0 -0.0 1.0
  outer loop
    vertex 4.999999999999995 4.999999999999999 3.0
    vertex 41.0 0.0 3.0
    vertex 5.0 16.0 3.0
  endloop
endfacet
facet normal -0.0 -0.0 1.0
  outer loop
    vertex 5.0 16.0 3.0
    vertex 41.0 0.0 3.0
    vertex 5.000000000000002 21.0 3.0
  endloop
endfacet
facet normal -0.0 -0.0 1.0
  outer loop
    vertex 5.000000000000002 21.0 3.0
    vertex 41.0 0.0 3.0
    vertex 40.99999999999999 4.999999999999999 3.0
  endloop
endfacet
facet normal -0.0 -0.0 1.0
  outer loop
    vertex 46.0 5.0 3.0
    vertex 41.0 16.0 3.0
    vertex 40.99999999999999 4.999999999999999 3.0
  endloop
endfacet
facet normal -0.0 -0.0 1.0
  outer loop
    vertex 41.0 16.0 3.0
    vertex 46.0 5.0 3.0
    vertex 46.0 16.0 3.0
  endloop
endfacet
facet normal -0.0 -0.0 1.0
  outer loop
    vertex 40.99999999999999 4.999999999999999 3.0
    vertex 41.0 21.0 3.0
    vertex 5.000000000000002 21.0 3.0
  endloop
endfacet
facet normal -0.0 -0.0 1.0
  outer loop
    vertex 41.0 21.0 3.0
    vertex 40.99999999999999 4.999999999999999 3.0
    vertex 41.0 16.0 3.0
  endloop
endfacet
facet normal -1.9835900641174413e-32 1.2541228515983104e-32 1.0
  outer loop
    vertex -4.140152692278991 6.926931113158185 17.0
    vertex -4.140152692278991 14.073068886841844 17.0
    vertex -4.374343999999995 10.5 17.0
  endloop
endfacet
facet normal -1.9835900641174413e-32 1.2541228515983104e-32 1.0
  outer loop
    vertex -4.140152692278991 14.073068886841844 17.0
    vertex -4.140152692278991 6.926931113158185 17.0
    vertex -3.4415858473211935 3.414998425612083 17.0
  endloop
endfacet
facet normal -1.9835900641174413e-32 1.2541228515983104e-32 1.0
  outer loop
    vertex -4.140152692278991 14.073068886841844 17.0
    vertex -3.4415858473211935 3.414998425612083 17.0
    vertex -3.4415858473211878 17.58500157438794 17.0
  endloop
endfacet
facet normal -1.9835900641174413e-32 1.2541228515983104e-32 1.0
  outer loop
    vertex -3.4415858473211878 17.58500157438794 17.0
    vertex -3.4415858473211935 3.414998425612083 17.0
    vertex -3.0 2.114128468051985 17.0
  endloop
endfacet
facet normal -1.9835900641174413e-32 1.2541228515983104e-32 1.0
  outer loop
    vertex -3.4415858473211878 17.58500157438794 17.0
    vertex -3.0 2.114128468051985 17.0
    vertex -3.0 18.88587153194802 17.0
  endloop
endfacet
facet normal -1.9835900641174413e-32 1.2541228515983104e-32 1.0
  outer loop
    vertex -3.0 18.88587153194802 17.0
    vertex -3.0 2.114128468051985 17.0
    vertex -2.2905961375231443 0.02429207933730162 17.0
  endloop
endfacet
facet normal -1.9835900641174413e-32 1.2541228515983104e-32 1.0
  outer loop
    vertex -3.0 18.88587153194802 17.0
    vertex -2.2905961375231443 0.02429207933730162 17.0
    vertex -2.2905961375231354 20.975707920662717 17.0
  endloop
endfacet
facet normal -1.9835900641174413e-32 1.2541228515983104e-32 1.0
  outer loop
    vertex -2.2905961375231354 20.975707920662717 17.0
    vertex -2.2905961375231443 0.02429207933730162 17.0
    vertex -0.7991803316152516 -3.0 17.0
  endloop
endfacet
facet normal -1.9835900641174413e-32 1.2541228515983104e-32 1.0
  outer loop
    vertex -2.2905961375231354 20.975707920662717 17.0
    vertex -0.7991803316152516 -3.0 17.0
    vertex -0.7991803316152504 24.0 17.0
  endloop
endfacet
facet normal -1.9835900641174413e-32 1.2541228515983104e-32 1.0
  outer loop
    vertex -0.7991803316152504 24.0 17.0
    vertex -0.7991803316152516 -3.0 17.0
    vertex 3.68640018092287e-32 1.2241270199527586e-31 17.0
  endloop
endfacet
facet normal -1.9835900641174413e-32 1.2541228515983104e-32 1.0
  outer loop
    vertex 3.68640018092287e-32 1.2241270199527586e-31 17.0
    vertex -0.7991803316152516 -3.0 17.0
    vertex 46.799180331615254 -3.0 17.0
  endloop
endfacet
facet normal -1.9835900641174413e-32 1.2541228515983104e-32 1.0
  outer loop
    vertex 3.68640018092287e-32 1.2241270199527586e-31 17.0
    vertex 46.799180331615254 -3.0 17.0
    vertex 46.0 2.3379833907308616e-32 17.0
  endloop
endfacet
facet normal -1.9835900641174413e-32 1.2541228515983104e-32 1.0
  outer loop
    vertex 46.0 2.3379833907308616e-32 17.0
    vertex 46.799180331615254 -3.0 17.0
    vertex 46.0 21.0 17.0
  endloop
endfacet
facet normal -1.9835900641174413e-32 1.2541228515983104e-32 1.0
  outer loop
    vertex -0.7991803316152504 24.0 17.0
    vertex 3.68640018092287e-32 21.0 17.0
    vertex 46.799180331615254 24.0 17.0
  endloop
endfacet
facet normal -1.9835900641174413e-32 1.2541228515983104e-32 1.0
  outer loop
    vertex 3.68640018092287e-32 21.0 17.0
    vertex -0.7991803316152504 24.0 17.0
    vertex 3.68640018092287e-32 1.2241270199527586e-31 17.0
  endloop
endfacet
facet normal -1.9835900641174413e-32 1.2541228515983104e-32 1.0
  outer loop
    vertex 46.799180331615254 24.0 17.0
    vertex 3.68640018092287e-32 21.0 17.0
    vertex 46.0 21.0 17.0
  endloop
endfacet
facet normal -1.9835900641174413e-32 1.2541228515983104e-32 1.0
  outer loop
    vertex 46.799180331615254 24.0 17.0
    vertex 46.0 21.0 17.0
    vertex 46.799180331615254 -3.0 17.0
  endloop
endfacet
facet normal -1.9835900641174413e-32 1.2541228515983104e-32 1.0
  outer loop
    vertex 46.799180331615254 24.0 17.0
    vertex 46.799180331615254 -3.0 17.0
    vertex 48.290596137523146 0.02429207933729739 17.0
  endloop
endfacet
facet normal -1.9835900641174413e-32 1.2541228515983104e-32 1.0
  outer loop
    vertex 46.799180331615254 24.0 17.0
    vertex 48.290596137523146 0.02429207933729739 17.0
    vertex 48.29059613752315 20.975707920662686 17.0
  endloop
endfacet
facet normal -1.9835900641174413e-32 1.2541228515983104e-32 1.0
  outer loop
    vertex 48.29059613752315 20.975707920662686 17.0
    vertex 48.290596137523146 0.02429207933729739 17.0
    vertex 49.0 2.1141284680519754 17.0
  endloop
endfacet
facet normal -1.9835900641174413e-32 1.2541228515983104e-32 1.0
  outer loop
    vertex 48.29059613752315 20.975707920662686 17.0
    vertex 49.0 2.1141284680519754 17.0
    vertex 49.0 18.885871531948013 17.0
  endloop
endfacet
facet normal -1.9835900641174413e-32 1.2541228515983104e-32 1.0
  outer loop
    vertex 49.0 18.885871531948013 17.0
    vertex 49.0 2.1141284680519754 17.0
    vertex 49.4415858473212 3.414998425612076 17.0
  endloop
endfacet
facet normal -1.9835900641174413e-32 1.2541228515983104e-32 1.0
  outer loop
    vertex 49.0 18.885871531948013 17.0
    vertex 49.4415858473212 3.414998425612076 17.0
    vertex 49.4415858473212 17.58500157438791 17.0
  endloop
endfacet
facet normal -1.9835900641174413e-32 1.2541228515983104e-32 1.0
  outer loop
    vertex 49.4415858473212 17.58500157438791 17.0
    vertex 49.4415858473212 3.414998425612076 17.0
    vertex 50.140152692278996 6.926931113158173 17.0
  endloop
endfacet
facet normal -1.9835900641174413e-32 1.2541228515983104e-32 1.0
  outer loop
    vertex 49.4415858473212 17.58500157438791 17.0
    vertex 50.140152692278996 6.926931113158173 17.0
    vertex 50.140152692278996 14.073068886841808 17.0
  endloop
endfacet
facet normal -1.9835900641174413e-32 1.2541228515983104e-32 1.0
  outer loop
    vertex 50.140152692278996 14.073068886841808 17.0
    vertex 50.140152692278996 6.926931113158173 17.0
    vertex 50.374344 10.499999999999998 17.0
  endloop
endfacet
facet normal 1.0 2.1980174030289187e-34 -3.969726281431541e-33
  outer loop
    vertex 0.0 16.0 3.0
    vertex 2.216170564068142e-31 5.0 7.999999999999999
    vertex 0.0 5.0 3.0
  endloop
endfacet
facet normal 1.0 2.1980174030289187e-34 -3.969726281431541e-33
  outer loop
    vertex 2.216170564068142e-31 5.0 7.999999999999999
    vertex 3.68640018092287e-32 1.2241270199527586e-31 17.0
    vertex 3.68640018092287e-32 1.2241270199527586e-31 7.999999999999999
  endloop
endfacet
facet normal 1.0 2.1980174030289187e-34 -3.969726281431541e-33
  outer loop
    vertex 3.68640018092287e-32 1.2241270199527586e-31 17.0
    vertex 2.216170564068142e-31 5.0 7.999999999999999
    vertex 3.68640018092287e-32 21.0 17.0
  endloop
endfacet
facet normal 1.0 2.1980174030289187e-34 -3.969726281431541e-33
  outer loop
    vertex 3.68640018092287e-32 21.0 17.0
    vertex 2.216170564068142e-31 5.0 7.999999999999999
    vertex 1.4774470427120912e-31 16.0 7.999999999999999
  endloop
endfacet
facet normal 1.0 2.1980174030289187e-34 -3.969726281431541e-33
  outer loop
    vertex 1.4774470427120912e-31 16.0 7.999999999999999
    vertex 2.216170564068142e-31 5.0 7.999999999999999
    vertex 0.0 16.0 3.0
  endloop
endfacet
facet normal 1.0 2.1980174030289187e-34 -3.969726281431541e-33
  outer loop
    vertex 3.68640018092287e-32 21.0 17.0
    vertex 1.4774470427120912e-31 16.0 7.999999999999999
    vertex 3.68640018092287e-32 21.0 7.999999999999999
  endloop
endfacet
facet normal 0.0 -1.0 0.0
  outer loop
    vertex 46.0 21.0 17.0
    vertex 41.0 21.0 7.999999999999999
    vertex 46.0 21.0 7.999999999999999
  endloop
endfacet
facet normal 0.0 -1.0 0.0
  outer loop
    vertex 41.0 21.0 7.999999999999999
    vertex 46.0 21.0 17.0
    vertex 5.000000000000002 21.0 7.999999999999999
  endloop
endfacet
facet normal 0.0 -1.0 0.0
  outer loop
    vertex 5.000000000000002 21.0 7.999999999999999
    vertex 46.0 21.0 17.0
    vertex 3.68640018092287e-32 21.0 7.999999999999999
  endloop
endfacet
facet normal 0.0 -1.0 0.0
  outer loop
    vertex 3.68640018092287e-32 21.0 7.999999999999999
    vertex 46.0 21.0 17.0
    vertex 3.68640018092287e-32 21.0 17.0
  endloop
endfacet
facet normal 0.0 -1.0 0.0
  outer loop
    vertex 41.0 21.0 7.999999999999999
    vertex 5.000000000000002 21.0 3.0
    vertex 41.0 21.0 3.0
  endloop
endfacet
facet normal 0.0 -1.0 0.0
  outer loop
    vertex 5.000000000000002 21.0 3.0
    vertex 41.0 21.0 7.999999999999999
    vertex 5.000000000000002 21.0 7.999999999999999
  endloop
endfacet
facet normal -1.0 0.0 0.0
  outer loop
    vertex 46.0 21.0 17.0
    vertex 46.0 2.3379833907308616e-32 7.999999999999999
    vertex 46.0 2.3379833907308616e-32 17.0
  endloop
endfacet
facet normal -1.0 0.0 0.0
  outer loop
    vertex 46.0 2.3379833907308616e-32 7.999999999999999
    vertex 46.0 21.0 17.0
    vertex 46.0 5.0 7.999999999999999
  endloop
endfacet
facet normal -1.0 0.0 0.0
  outer loop
    vertex 46.0 5.0 7.999999999999999
    vertex 46.0 21.0 17.0
    vertex 46.0 5.0 3.0
  endloop
endfacet
facet normal -1.0 0.0 0.0
  outer loop
    vertex 46.0 5.0 3.0
    vertex 46.0 21.0 17.0
    vertex 46.0 16.0 7.999999999999999
  endloop
endfacet
facet normal -1.0 0.0 0.0
  outer loop
    vertex 46.0 16.0 7.999999999999999
    vertex 46.0 21.0 17.0
    vertex 46.0 21.0 7.999999999999999
  endloop
endfacet
facet normal -1.0 0.0 0.0
  outer loop
    vertex 46.0 16.0 3.0
    vertex 46.0 5.0 3.0
    vertex 46.0 16.0 7.999999999999999
  endloop
endfacet
facet normal 1.0 -0.0 -0.0
  outer loop
    vertex 17.0 -3.0 7.999999999999999
    vertex 17.0 -7.049916206369746e-16 15.0
    vertex 17.0 -3.0000000000000013 14.999999999999998
  endloop
endfacet
facet normal 1.0 -0.0 -0.0
  outer loop
    vertex 17.0 -7.049916206369746e-16 15.0
    vertex 17.0 -3.0 7.999999999999999
    vertex 17.0 4.699944137579826e-16 7.999999999999999
  endloop
endfacet
facet normal -1.0 0.0 0.0
  outer loop
    vertex 29.000000000000004 -1.1749860343949572e-15 15.0
    vertex 29.000000000000004 -3.0 7.999999999999999
    vertex 29.000000000000004 -3.0000000000000013 15.0
  endloop
endfacet
facet normal -1.0 0.0 0.0
  outer loop
    vertex 29.000000000000004 -3.0 7.999999999999999
    vertex 29.000000000000004 -1.1749860343949572e-15 15.0
    vertex 29.000000000000004 0.0 7.999999999999999
  endloop
endfacet
facet normal 5.874930171974786e-17 2.349972068789914e-16 -1.0
  outer loop
    vertex 29.000000000000004 -1.1749860343949572e-15 15.0
    vertex 17.0 -3.0000000000000013 14.999999999999998
    vertex 17.0 -7.049916206369746e-16 15.0
  endloop
endfacet
facet normal 5.874930171974786e-17 2.349972068789914e-16 -1.0
  outer loop
    vertex 17.0 -3.0000000000000013 14.999999999999998
    vertex 29.000000000000004 -1.1749860343949572e-15 15.0
    vertex 29.000000000000004 -3.0000000000000013 15.0
  endloop
endfacet
facet normal 0.0 0.0 -1.0
  outer loop
    vertex -4.140152692278991 14.073068886841844 0.0
    vertex -4.140152692278991 6.926931113158185 0.0
    vertex -4.374343999999995 10.5 0.0
  endloop
endfacet
facet normal 0.0 0.0 -1.0
  outer loop
    vertex -4.140152692278991 6.926931113158185 0.0
    vertex -4.140152692278991 14.073068886841844 0.0
    vertex -3.4415858473211878 17.58500157438794 0.0
  endloop
endfacet
facet normal 0.0 0.0 -1.0
  outer loop
    vertex -4.140152692278991 6.926931113158185 0.0
    vertex -3.4415858473211878 17.58500157438794 0.0
    vertex -3.4415858473211935 3.414998425612083 0.0
  endloop
endfacet
facet normal 0.0 0.0 -1.0
  outer loop
    vertex -3.4415858473211935 3.414998425612083 0.0
    vertex -3.4415858473211878 17.58500157438794 0.0
    vertex -3.0 2.114128468051985 0.0
  endloop
endfacet
facet normal 0.0 0.0 -1.0
  outer loop
    vertex -3.0 2.114128468051985 0.0
    vertex -3.4415858473211878 17.58500157438794 0.0
    vertex -3.0 18.88587153194802 0.0
  endloop
endfacet
facet normal 0.0 0.0 -1.0
  outer loop
    vertex -3.0 2.114128468051985 0.0
    vertex -3.0 18.88587153194802 0.0
    vertex -2.2905961375231354 20.975707920662717 0.0
  endloop
endfacet
facet normal 0.0 0.0 -1.0
  outer loop
    vertex -3.0 2.114128468051985 0.0
    vertex -2.2905961375231354 20.975707920662717 0.0
    vertex -2.2905961375231443 0.02429207933730162 0.0
  endloop
endfacet
facet normal 0.0 0.0 -1.0
  outer loop
    vertex -2.2905961375231443 0.02429207933730162 0.0
    vertex -2.2905961375231354 20.975707920662717 0.0
    vertex -0.7991803316152516 -3.0 0.0
  endloop
endfacet
facet normal 0.0 0.0 -1.0
  outer loop
    vertex -0.7991803316152516 -3.0 0.0
    vertex -2.2905961375231354 20.975707920662717 0.0
    vertex -0.7991803316152504 24.0 0.0
  endloop
endfacet
facet normal 0.0 0.0 -1.0
  outer loop
    vertex -0.7991803316152516 -3.0 0.0
    vertex -0.7991803316152504 24.0 0.0
    vertex 46.799180331615254 -3.0 0.0
  endloop
endfacet
facet normal 0.0 0.0 -1.0
  outer loop
    vertex 46.799180331615254 -3.0 0.0
    vertex -0.7991803316152504 24.0 0.0
    vertex 46.799180331615254 24.0 0.0
  endloop
endfacet
facet normal 0.0 0.0 -1.0
  outer loop
    vertex 46.799180331615254 -3.0 0.0
    vertex 46.799180331615254 24.0 0.0
    vertex 48.29059613752315 20.975707920662686 0.0
  endloop
endfacet
facet normal 0.0 0.0 -1.0
  outer loop
    vertex 46.799180331615254 -3.0 0.0
    vertex 48.29059613752315 20.975707920662686 0.0
    vertex 48.290596137523146 0.02429207933729739 0.0
  endloop
endfacet
facet normal 0.0 0.0 -1.0
  outer loop
    vertex 48.290596137523146 0.02429207933729739 0.0
    vertex 48.29059613752315 20.975707920662686 0.0
    vertex 49.0 2.1141284680519754 0.0
  endloop
endfacet
facet normal 0.0 0.0 -1.0
  outer loop
    vertex 49.0 2.1141284680519754 0.0
    vertex 48.29059613752315 20.975707920662686 0.0
    vertex 49.0 18.885871531948013 0.0
  endloop
endfacet
facet normal 0.0 0.0 -1.0
  outer loop
    vertex 49.0 2.1141284680519754 0.0
    vertex 49.0 18.885871531948013 0.0
    vertex 49.4415858473212 17.58500157438791 0.0
  endloop
endfacet
facet normal 0.0 0.0 -1.0
  outer loop
    vertex 49.0 2.1141284680519754 0.0
    vertex 49.4415858473212 17.58500157438791 0.0
    vertex 49.4415858473212 3.414998425612076 0.0
  endloop
endfacet
facet normal 0.0 0.0 -1.0
  outer loop
    vertex 49.4415858473212 3.414998425612076 0.0
    vertex 49.4415858473212 17.58500157438791 0.0
    vertex 50.140152692278996 14.073068886841808 0.0
  endloop
endfacet
facet normal 0.0 0.0 -1.0
  outer loop
    vertex 49.4415858473212 3.414998425612076 0.0
    vertex 50.140152692278996 14.073068886841808 0.0
    vertex 50.140152692278996 6.926931113158173 0.0
  endloop
endfacet
facet normal 0.0 0.0 -1.0
  outer loop
    vertex 50.140152692278996 6.926931113158173 0.0
    vertex 50.140152692278996 14.073068886841808 0.0
    vertex 50.374344 10.499999999999998 0.0
  endloop
endfacet
facet normal 0.946930129495106 0.32143946530316064 0.0
  outer loop
    vertex 48.29059613752315 20.975707920662686 0.0
    vertex 49.0 18.885871531948013 17.0
    vertex 49.0 18.885871531948013 0.0
  endloop
endfacet
facet normal 0.946930129495106 0.32143946530316064 0.0
  outer loop
    vertex 49.0 18.885871531948013 17.0
    vertex 48.29059613752315 20.975707920662686 0.0
    vertex 48.29059613752315 20.975707920662686 17.0
  endloop
endfacet
facet normal 0.9469301294951056 -0.32143946530316225 0.0
  outer loop
    vertex 49.4415858473212 3.414998425612076 0.0
    vertex 49.0 2.1141284680519754 17.0
    vertex 49.0 2.1141284680519754 0.0
  endloop
endfacet
facet normal 0.9469301294951056 -0.32143946530316225 0.0
  outer loop
    vertex 49.0 2.1141284680519754 17.0
    vertex 49.4415858473212 3.414998425612076 0.0
    vertex 49.4415858473212 3.414998425612076 17.0
  endloop
endfacet
facet normal 0.8968727415326884 -0.44228869021900147 0.0
  outer loop
    vertex 48.290596137523146 0.02429207933729739 0.0
    vertex 46.799180331615254 -3.0 17.0
    vertex 46.799180331615254 -3.0 0.0
  endloop
endfacet
facet normal 0.8968727415326884 -0.44228869021900147 0.0
  outer loop
    vertex 46.799180331615254 -3.0 17.0
    vertex 48.290596137523146 0.02429207933729739 0.0
    vertex 48.290596137523146 0.02429207933729739 17.0
  endloop
endfacet
facet normal 0.8968727415326886 0.4422886902190006 0.0
  outer loop
    vertex 46.799180331615254 24.0 0.0
    vertex 48.29059613752315 20.975707920662686 17.0
    vertex 48.29059613752315 20.975707920662686 0.0
  endloop
endfacet
facet normal 0.8968727415326886 0.4422886902190006 0.0
  outer loop
    vertex 48.29059613752315 20.975707920662686 17.0
    vertex 46.799180331615254 24.0 0.0
    vertex 46.799180331615254 24.0 17.0
  endloop
endfacet
facet normal 0.9978589232386035 0.06540312923014395 0.0
  outer loop
    vertex 50.140152692278996 14.073068886841808 0.0
    vertex 50.374344 10.499999999999998 17.0
    vertex 50.374344 10.499999999999998 0.0
  endloop
endfacet
facet normal 0.9978589232386035 0.06540312923014395 0.0
  outer loop
    vertex 50.374344 10.499999999999998 17.0
    vertex 50.140152692278996 14.073068886841808 0.0
    vertex 50.140152692278996 14.073068886841808 17.0
  endloop
endfacet
facet normal 0.9807852804032305 0.1950903220161278 0.0
  outer loop
    vertex 49.4415858473212 17.58500157438791 0.0
    vertex 50.140152692278996 14.073068886841808 17.0
    vertex 50.140152692278996 14.073068886841808 0.0
  endloop
endfacet
facet normal 0.9807852804032305 0.1950903220161278 0.0
  outer loop
    vertex 50.140152692278996 14.073068886841808 17.0
    vertex 49.4415858473212 17.58500157438791 0.0
    vertex 49.4415858473212 17.58500157438791 17.0
  endloop
endfacet
facet normal 0.9469301294951059 0.32143946530316114 0.0
  outer loop
    vertex 49.0 18.885871531948013 0.0
    vertex 49.4415858473212 17.58500157438791 17.0
    vertex 49.4415858473212 17.58500157438791 0.0
  endloop
endfacet
facet normal 0.9469301294951059 0.32143946530316114 0.0
  outer loop
    vertex 49.4415858473212 17.58500157438791 17.0
    vertex 49.0 18.885871531948013 0.0
    vertex 49.0 18.885871531948013 17.0
  endloop
endfacet
facet normal 0.9978589232386035 -0.0654031292301437 0.0
  outer loop
    vertex 50.374344 10.499999999999998 0.0
    vertex 50.140152692278996 6.926931113158173 17.0
    vertex 50.140152692278996 6.926931113158173 0.0
  endloop
endfacet
facet normal 0.9978589232386035 -0.0654031292301437 0.0
  outer loop
    vertex 50.140152692278996 6.926931113158173 17.0
    vertex 50.374344 10.499999999999998 0.0
    vertex 50.374344 10.499999999999998 17.0
  endloop
endfacet
facet normal 0.9469301294951055 -0.3214394653031621 0.0
  outer loop
    vertex 49.0 2.1141284680519754 0.0
    vertex 48.290596137523146 0.02429207933729739 17.0
    vertex 48.290596137523146 0.02429207933729739 0.0
  endloop
endfacet
facet normal 0.9469301294951055 -0.3214394653031621 0.0
  outer loop
    vertex 48.290596137523146 0.02429207933729739 17.0
    vertex 49.0 2.1141284680519754 0.0
    vertex 49.0 2.1141284680519754 17.0
  endloop
endfacet
facet normal 0.9807852804032305 -0.19509032201612797 0.0
  outer loop
    vertex 50.140152692278996 6.926931113158173 0.0
    vertex 49.4415858473212 3.414998425612076 17.0
    vertex 49.4415858473212 3.414998425612076 0.0
  endloop
endfacet
facet normal 0.9807852804032305 -0.19509032201612797 0.0
  outer loop
    vertex 49.4415858473212 3.414998425612076 17.0
    vertex 50.140152692278996 6.926931113158173 0.0
    vertex 50.140152692278996 6.926931113158173 17.0
  endloop
endfacet
facet normal 0.0 0.0 1.0
  outer loop
    vertex 29.000000000000004 -3.0 7.999999999999999
    vertex 17.0 4.699944137579826e-16 7.999999999999999
    vertex 17.0 -3.0 7.999999999999999
  endloop
endfacet
facet normal 0.0 0.0 1.0
  outer loop
    vertex 17.0 4.699944137579826e-16 7.999999999999999
    vertex 29.000000000000004 -3.0 7.999999999999999
    vertex 29.000000000000004 0.0 7.999999999999999
  endloop
endfacet
facet normal 3.1571088316880285e-17 1.0 8.582229943410666e-17
  outer loop
    vertex 3.68640018092287e-32 1.2241270199527586e-31 17.0
    vertex 4.999999999999992 2.8199664825478975e-15 7.999999999999999
    vertex 3.68640018092287e-32 1.2241270199527586e-31 7.999999999999999
  endloop
endfacet
facet normal 3.1571088316880285e-17 1.0 8.582229943410666e-17
  outer loop
    vertex 4.999999999999992 2.8199664825478975e-15 7.999999999999999
    vertex 3.68640018092287e-32 1.2241270199527586e-31 17.0
    vertex 17.0 4.699944137579826e-16 7.999999999999999
  endloop
endfacet
facet normal 3.1571088316880285e-17 1.0 8.582229943410666e-17
  outer loop
    vertex 17.0 4.699944137579826e-16 7.999999999999999
    vertex 3.68640018092287e-32 1.2241270199527586e-31 17.0
    vertex 17.0 -7.049916206369746e-16 15.0
  endloop
endfacet
facet normal 3.1571088316880285e-17 1.0 8.582229943410666e-17
  outer loop
    vertex 17.0 -7.049916206369746e-16 15.0
    vertex 3.68640018092287e-32 1.2241270199527586e-31 17.0
    vertex 29.000000000000004 -1.1749860343949572e-15 15.0
  endloop
endfacet
facet normal 3.1571088316880285e-17 1.0 8.582229943410666e-17
  outer loop
    vertex 4.999999999999992 2.8199664825478975e-15 7.999999999999999
    vertex 41.0 0.0 3.0
    vertex 4.999999999999992 2.8199664825478975e-15 3.0
  endloop
endfacet
facet normal 3.1571088316880285e-17 1.0 8.582229943410666e-17
  outer loop
    vertex 41.0 0.0 3.0
    vertex 4.999999999999992 2.8199664825478975e-15 7.999999999999999
    vertex 41.0 2.3379833907308616e-32 7.999999999999999
  endloop
endfacet
facet normal 3.1571088316880285e-17 1.0 8.582229943410666e-17
  outer loop
    vertex 41.0 2.3379833907308616e-32 7.999999999999999
    vertex 4.999999999999992 2.8199664825478975e-15 7.999999999999999
    vertex 17.0 4.699944137579826e-16 7.999999999999999
  endloop
endfacet
facet normal 3.1571088316880285e-17 1.0 8.582229943410666e-17
  outer loop
    vertex 41.0 2.3379833907308616e-32 7.999999999999999
    vertex 17.0 4.699944137579826e-16 7.999999999999999
    vertex 29.000000000000004 0.0 7.999999999999999
  endloop
endfacet
facet normal 3.1571088316880285e-17 1.0 8.582229943410666e-17
  outer loop
    vertex 41.0 2.3379833907308616e-32 7.999999999999999
    vertex 29.000000000000004 0.0 7.999999999999999
    vertex 29.000000000000004 -1.1749860343949572e-15 15.0
  endloop
endfacet
facet normal 3.1571088316880285e-17 1.0 8.582229943410666e-17
  outer loop
    vertex 41.0 2.3379833907308616e-32 7.999999999999999
    vertex 29.000000000000004 -1.1749860343949572e-15 15.0
    vertex 46.0 2.3379833907308616e-32 7.999999999999999
  endloop
endfacet
facet normal 3.1571088316880285e-17 1.0 8.582229943410666e-17
  outer loop
    vertex 46.0 2.3379833907308616e-32 7.999999999999999
    vertex 29.000000000000004 -1.1749860343949572e-15 15.0
    vertex 46.0 2.3379833907308616e-32 17.0
  endloop
endfacet
facet normal 3.1571088316880285e-17 1.0 8.582229943410666e-17
  outer loop
    vertex 46.0 2.3379833907308616e-32 17.0
    vertex 29.000000000000004 -1.1749860343949572e-15 15.0
    vertex 3.68640018092287e-32 1.2241270199527586e-31 17.0
  endloop
endfacet
endsolid HC-SR04_my_Case
