M48
;DRILL file {PCBnew (20080825c)} date 21/9/2009-07:50:17
;FORMAT={-.-/ absolute / metric / decimal}
R,T
VER,1
FMAT,2
METRIC,TZ
TCST,OFF
ICI,OFF
ATC,ON
T1C0.813
T2C1.016
T3C1.199
T4C3.251
T5C3.810
%
M47
G05
M71
T1
X120.015Y102.235
X120.015Y112.395
X122.555Y102.235
X122.555Y112.395
X130.175Y71.755
X130.175Y76.835
X130.175Y93.980
X132.080Y81.280
X132.080Y88.900
X132.715Y93.980
X134.620Y70.485
X134.620Y78.105
X134.620Y81.280
X134.620Y88.900
X137.160Y70.485
X137.160Y78.105
X137.160Y81.280
X137.160Y88.900
X137.160Y93.980
X139.700Y70.485
X139.700Y78.105
X139.700Y81.280
X139.700Y88.900
X139.700Y93.980
X142.240Y70.485
X142.240Y78.105
X142.240Y81.280
X142.240Y88.900
X144.145Y65.405
X144.145Y93.980
X144.780Y70.485
X144.780Y78.105
X144.780Y81.280
X144.780Y88.900
X146.685Y65.405
X146.685Y93.980
X147.320Y70.485
X147.320Y78.105
X147.320Y81.280
X147.320Y88.900
X149.860Y70.485
X149.860Y78.105
X149.860Y81.280
X149.860Y88.900
X151.130Y93.980
X152.400Y70.485
X152.400Y78.105
X153.670Y93.980
X154.305Y82.550
X154.305Y87.630
X154.940Y70.485
X154.940Y78.105
X156.845Y65.405
X157.480Y70.485
X157.480Y78.105
X157.480Y100.965
X157.480Y103.505
X157.480Y106.045
X158.115Y82.550
X158.115Y87.630
X160.020Y70.485
X160.020Y78.105
X162.560Y70.485
X162.560Y78.105
X163.195Y83.185
X163.195Y88.265
X164.465Y100.965
X164.465Y103.505
X164.465Y106.045
X165.100Y70.485
X165.100Y78.105
X167.005Y65.405
X167.640Y70.485
X167.640Y78.105
X167.640Y81.915
X167.640Y92.075
X170.815Y81.915
X170.815Y92.075
X172.085Y67.945
X172.085Y78.105
X175.260Y67.945
X175.260Y78.105
X178.435Y67.945
X178.435Y78.105
X188.214Y104.140
X188.214Y106.680
T2
X114.300Y102.870
X114.300Y106.680
X114.935Y64.135
X114.935Y66.675
X114.935Y69.215
X114.935Y71.755
X114.935Y74.295
X116.840Y102.870
X116.840Y106.680
X117.475Y64.135
X117.475Y66.675
X117.475Y69.215
X117.475Y71.755
X117.475Y74.295
X122.555Y84.455
X122.555Y86.995
X122.555Y89.535
X122.555Y92.075
X122.555Y94.615
X124.460Y64.135
X124.460Y66.675
X124.460Y69.215
X124.460Y71.755
X124.460Y74.295
X125.095Y84.455
X125.095Y86.995
X125.095Y89.535
X125.095Y92.075
X125.095Y94.615
X128.270Y100.965
X129.540Y103.505
X130.175Y61.595
X130.175Y64.135
X130.810Y100.965
X132.080Y103.505
X132.715Y61.595
X132.715Y64.135
X133.350Y100.965
X134.620Y103.505
X135.255Y61.595
X135.255Y64.135
X137.795Y61.595
X137.795Y64.135
X140.335Y61.595
X140.335Y64.135
X144.272Y100.965
X145.542Y103.505
X146.812Y100.965
X148.082Y103.505
X149.225Y52.705
X149.225Y55.245
X149.225Y57.785
X149.352Y100.965
X150.622Y103.505
X151.130Y65.405
X151.765Y52.705
X151.765Y55.245
X151.765Y57.785
X153.670Y65.405
X154.305Y52.705
X154.305Y55.245
X154.305Y57.785
X156.845Y52.705
X156.845Y55.245
X156.845Y57.785
X158.750Y96.647
X159.385Y52.705
X159.385Y55.245
X159.385Y57.785
X161.290Y96.647
X161.925Y52.705
X161.925Y55.245
X161.925Y57.785
X163.830Y96.647
X164.465Y52.705
X164.465Y55.245
X164.465Y57.785
X167.005Y52.705
X167.005Y55.245
X167.005Y57.785
X168.275Y96.647
X170.815Y96.647
X171.450Y62.865
X173.355Y96.647
X173.990Y62.865
X174.625Y83.185
X174.625Y85.725
X174.625Y88.265
X174.625Y90.805
X176.530Y62.865
X179.705Y83.820
X179.705Y86.360
X179.705Y88.900
X179.705Y91.440
X179.705Y93.980
X182.245Y83.820
X182.245Y86.360
X182.245Y88.900
X182.245Y91.440
X182.245Y93.980
X182.880Y60.325
X182.880Y64.770
X182.880Y67.945
X182.880Y72.390
X185.420Y76.200
X187.960Y76.200
X189.230Y60.325
X189.230Y64.770
X189.230Y67.945
X189.230Y72.390
T3
X163.195Y113.030
X168.275Y113.030
X174.625Y54.610
X179.705Y54.610
T4
X126.365Y109.855
X136.525Y109.855
X142.367Y109.855
X152.527Y109.855
T5
X114.935Y54.610
X114.935Y113.665
X176.784Y104.140
X176.784Y110.490
X181.864Y106.680
X189.865Y54.610
X189.865Y113.665
T0
M30
