G04 (Genere par PCBnew (20080825c)) le 21/9/2009-07:37:52*
G01*
G70*
G90*
%MOIN*%
G04 Gerber Fmt 3.4, Leading zero omitted, Abs format*
%FSLAX34Y34*%
G04 APERTURE LIST*
%ADD10C,0.012000*%
%ADD11C,0.012000*%
%ADD12C,0.060000*%
%ADD13R,0.052000X0.052000*%
%ADD14C,0.052000*%
%ADD15C,0.150000*%
%ADD16R,0.060000X0.060000*%
%ADD17O,0.120000X0.060000*%
%ADD18C,0.128000*%
%ADD19R,0.066000X0.066000*%
%ADD20C,0.066000*%
%ADD21C,0.080000*%
%ADD22C,0.190000*%
%ADD23C,0.050000*%
%ADD24C,0.025000*%
%ADD25C,0.002500*%
%ADD26C,0.001000*%
%ADD27C,0.002000*%
%ADD28C,0.003500*%
%ADD29C,0.024000*%
%ADD30C,0.010000*%
%ADD31R,0.072000X0.072000*%
%ADD32C,0.072000*%
%ADD33C,0.170000*%
%ADD34R,0.080000X0.080000*%
%ADD35O,0.140000X0.080000*%
%ADD36C,0.148000*%
%ADD37R,0.086000X0.086000*%
%ADD38C,0.086000*%
%ADD39C,0.100000*%
%ADD40C,0.210000*%
G04 APERTURE END LIST*
G54D10*
X44000Y-46000D02*
X44000Y-20000D01*
X76000Y-46000D02*
X44000Y-46000D01*
X76000Y-20000D02*
X76000Y-46000D01*
X44000Y-20000D02*
X76000Y-20000D01*
G54D21*
X51250Y-25250D03*
X52250Y-25250D03*
X53250Y-25250D03*
X54250Y-25250D03*
X55250Y-25250D03*
X51250Y-24250D03*
X52250Y-24250D03*
X53250Y-24250D03*
X54250Y-24250D03*
X55250Y-24250D03*
G54D31*
X64750Y-41750D03*
G54D32*
X64750Y-40750D03*
X64750Y-39750D03*
G54D31*
X62000Y-41750D03*
G54D32*
X62000Y-40750D03*
X62000Y-39750D03*
G54D33*
X45250Y-21500D03*
X74750Y-21500D03*
X74750Y-44750D03*
X45250Y-44750D03*
G54D34*
X58750Y-20750D03*
G54D21*
X58750Y-21750D03*
X58750Y-22750D03*
G54D34*
X59750Y-20750D03*
G54D21*
X59750Y-21750D03*
X59750Y-22750D03*
G54D34*
X60750Y-20750D03*
G54D21*
X60750Y-21750D03*
X60750Y-22750D03*
G54D34*
X61750Y-20750D03*
G54D21*
X61750Y-21750D03*
X61750Y-22750D03*
G54D34*
X62750Y-20750D03*
G54D21*
X62750Y-21750D03*
X62750Y-22750D03*
G54D34*
X63750Y-20750D03*
G54D21*
X63750Y-21750D03*
X63750Y-22750D03*
G54D34*
X65750Y-20750D03*
G54D21*
X65750Y-21750D03*
X65750Y-22750D03*
G54D34*
X64750Y-20750D03*
G54D21*
X64750Y-21750D03*
X64750Y-22750D03*
G54D34*
X69500Y-24750D03*
G54D21*
X68500Y-24750D03*
X67500Y-24750D03*
G54D35*
X74500Y-25500D03*
X72000Y-25500D03*
X74500Y-23750D03*
X72000Y-23750D03*
X72000Y-26750D03*
X74500Y-26750D03*
X72000Y-28500D03*
X74500Y-28500D03*
G54D34*
X73000Y-30000D03*
G54D21*
X74000Y-30000D03*
G54D32*
X74100Y-42000D03*
G54D31*
X74100Y-41000D03*
G54D34*
X50500Y-39750D03*
G54D21*
X51000Y-40750D03*
X51500Y-39750D03*
X52000Y-40750D03*
X52500Y-39750D03*
X53000Y-40750D03*
G54D36*
X49750Y-43250D03*
X53750Y-43250D03*
G54D34*
X56800Y-39750D03*
G54D21*
X57300Y-40750D03*
X57800Y-39750D03*
X58300Y-40750D03*
X58800Y-39750D03*
X59300Y-40750D03*
G54D36*
X56050Y-43250D03*
X60050Y-43250D03*
G54D34*
X46000Y-40500D03*
G54D21*
X45000Y-40500D03*
G54D34*
X46000Y-42000D03*
G54D21*
X45000Y-42000D03*
X47250Y-44250D03*
X47250Y-40250D03*
X48250Y-44250D03*
X48250Y-40250D03*
G54D34*
X56750Y-25750D03*
G54D21*
X57750Y-25750D03*
G54D34*
X60500Y-25750D03*
G54D21*
X59500Y-25750D03*
X61750Y-25750D03*
X65750Y-25750D03*
G54D31*
X53000Y-30750D03*
G54D32*
X54000Y-30750D03*
X55000Y-30750D03*
X56000Y-30750D03*
X57000Y-30750D03*
X58000Y-30750D03*
X59000Y-30750D03*
X60000Y-30750D03*
X61000Y-30750D03*
X62000Y-30750D03*
X63000Y-30750D03*
X64000Y-30750D03*
X65000Y-30750D03*
X66000Y-30750D03*
X66000Y-27750D03*
X65000Y-27750D03*
X64000Y-27750D03*
X63000Y-27750D03*
X62000Y-27750D03*
X61000Y-27750D03*
X60000Y-27750D03*
X59000Y-27750D03*
X58000Y-27750D03*
X57000Y-27750D03*
X56000Y-27750D03*
X55000Y-27750D03*
X54000Y-27750D03*
X53000Y-27750D03*
G54D31*
X52000Y-35000D03*
G54D32*
X53000Y-35000D03*
X54000Y-35000D03*
X55000Y-35000D03*
X56000Y-35000D03*
X57000Y-35000D03*
X58000Y-35000D03*
X59000Y-35000D03*
X59000Y-32000D03*
X58000Y-32000D03*
X57000Y-32000D03*
X56000Y-32000D03*
X55000Y-32000D03*
X54000Y-32000D03*
X53000Y-32000D03*
X52000Y-32000D03*
X51250Y-37000D03*
G54D31*
X52250Y-37000D03*
G54D32*
X54000Y-37000D03*
G54D31*
X55000Y-37000D03*
G54D32*
X56750Y-37000D03*
G54D31*
X57750Y-37000D03*
G54D32*
X59500Y-37000D03*
G54D31*
X60500Y-37000D03*
G54D34*
X62500Y-38050D03*
G54D21*
X63500Y-38050D03*
X64500Y-38050D03*
G54D34*
X66250Y-38050D03*
G54D21*
X67250Y-38050D03*
X68250Y-38050D03*
G54D37*
X64250Y-32750D03*
G54D38*
X64250Y-34750D03*
G54D21*
X66000Y-32250D03*
X66000Y-36250D03*
X67250Y-36250D03*
X67250Y-32250D03*
X67750Y-26750D03*
X67750Y-30750D03*
X69000Y-26750D03*
X69000Y-30750D03*
X70250Y-26750D03*
X70250Y-30750D03*
G54D34*
X68750Y-35750D03*
G54D21*
X68750Y-34750D03*
X68750Y-33750D03*
X68750Y-32750D03*
G54D34*
X49000Y-25250D03*
G54D21*
X49000Y-26250D03*
X49000Y-27250D03*
X49000Y-28250D03*
X49000Y-29250D03*
G54D39*
X70750Y-21500D03*
X68750Y-21500D03*
X64250Y-44500D03*
X66250Y-44500D03*
G54D40*
X69600Y-43500D03*
X69600Y-41000D03*
X71600Y-42000D03*
G54D38*
X51250Y-30250D03*
X51250Y-28250D03*
X62250Y-32500D03*
X62250Y-34500D03*
X60750Y-32500D03*
X60750Y-34500D03*
X46250Y-28250D03*
X46250Y-27250D03*
X46250Y-26250D03*
X46250Y-25250D03*
X45250Y-25250D03*
X45250Y-26250D03*
X45250Y-27250D03*
X45250Y-28250D03*
X45250Y-29250D03*
G54D37*
X46250Y-29250D03*
G54D34*
X49250Y-37250D03*
G54D21*
X49250Y-36250D03*
X49250Y-35250D03*
X49250Y-34250D03*
X49250Y-33250D03*
X48250Y-37250D03*
X48250Y-36250D03*
X48250Y-35250D03*
X48250Y-34250D03*
X48250Y-33250D03*
G54D34*
X70750Y-33000D03*
G54D21*
X70750Y-34000D03*
X70750Y-35000D03*
X70750Y-36000D03*
X70750Y-37000D03*
X71750Y-33000D03*
X71750Y-34000D03*
X71750Y-35000D03*
X71750Y-36000D03*
X71750Y-37000D03*
M02*
